<mxfile host="Electron" agent="Mozilla/5.0 (Windows NT 10.0; Win64; x64) AppleWebKit/537.36 (KHTML, like Gecko) draw.io/24.7.8 Chrome/128.0.6613.36 Electron/32.0.1 Safari/537.36" version="24.7.8" pages="2">
  <diagram name="PÃ¡gina-1" id="QqUnpXxNjxalpsH4p9D8">
    <mxGraphModel dx="11081" dy="6478" grid="1" gridSize="10" guides="1" tooltips="1" connect="1" arrows="1" fold="1" page="1" pageScale="1" pageWidth="827" pageHeight="1169" math="0" shadow="0">
      <root>
        <mxCell id="0" />
        <mxCell id="1" parent="0" />
        <mxCell id="OFGFD8s86w9iyIirFIPD-10" value="Characters" style="swimlane;fontStyle=1;align=center;verticalAlign=top;childLayout=stackLayout;horizontal=1;startSize=26;horizontalStack=0;resizeParent=1;resizeParentMax=0;resizeLast=0;collapsible=1;marginBottom=0;whiteSpace=wrap;html=1;" parent="1" vertex="1">
          <mxGeometry x="-2010" y="29" width="200" height="86" as="geometry" />
        </mxCell>
        <mxCell id="OFGFD8s86w9iyIirFIPD-11" value="- name: string" style="text;strokeColor=none;fillColor=none;align=left;verticalAlign=top;spacingLeft=4;spacingRight=4;overflow=hidden;rotatable=0;points=[[0,0.5],[1,0.5]];portConstraint=eastwest;whiteSpace=wrap;html=1;" parent="OFGFD8s86w9iyIirFIPD-10" vertex="1">
          <mxGeometry y="26" width="200" height="26" as="geometry" />
        </mxCell>
        <mxCell id="OFGFD8s86w9iyIirFIPD-12" value="" style="line;strokeWidth=1;fillColor=none;align=left;verticalAlign=middle;spacingTop=-1;spacingLeft=3;spacingRight=3;rotatable=0;labelPosition=right;points=[];portConstraint=eastwest;strokeColor=inherit;" parent="OFGFD8s86w9iyIirFIPD-10" vertex="1">
          <mxGeometry y="52" width="200" height="8" as="geometry" />
        </mxCell>
        <mxCell id="OFGFD8s86w9iyIirFIPD-13" value="+ implementAnimation(): void" style="text;strokeColor=none;fillColor=none;align=left;verticalAlign=top;spacingLeft=4;spacingRight=4;overflow=hidden;rotatable=0;points=[[0,0.5],[1,0.5]];portConstraint=eastwest;whiteSpace=wrap;html=1;" parent="OFGFD8s86w9iyIirFIPD-10" vertex="1">
          <mxGeometry y="60" width="200" height="26" as="geometry" />
        </mxCell>
        <mxCell id="OFGFD8s86w9iyIirFIPD-17" value="Vehicle" style="swimlane;fontStyle=1;align=center;verticalAlign=top;childLayout=stackLayout;horizontal=1;startSize=26;horizontalStack=0;resizeParent=1;resizeParentMax=0;resizeLast=0;collapsible=1;marginBottom=0;whiteSpace=wrap;html=1;" parent="1" vertex="1">
          <mxGeometry x="-1710" y="-24" width="200" height="190" as="geometry" />
        </mxCell>
        <mxCell id="OFGFD8s86w9iyIirFIPD-18" value="- type: string" style="text;strokeColor=none;fillColor=none;align=left;verticalAlign=top;spacingLeft=4;spacingRight=4;overflow=hidden;rotatable=0;points=[[0,0.5],[1,0.5]];portConstraint=eastwest;whiteSpace=wrap;html=1;" parent="OFGFD8s86w9iyIirFIPD-17" vertex="1">
          <mxGeometry y="26" width="200" height="26" as="geometry" />
        </mxCell>
        <mxCell id="OFGFD8s86w9iyIirFIPD-19" value="- speed: int" style="text;strokeColor=none;fillColor=none;align=left;verticalAlign=top;spacingLeft=4;spacingRight=4;overflow=hidden;rotatable=0;points=[[0,0.5],[1,0.5]];portConstraint=eastwest;whiteSpace=wrap;html=1;" parent="OFGFD8s86w9iyIirFIPD-17" vertex="1">
          <mxGeometry y="52" width="200" height="26" as="geometry" />
        </mxCell>
        <mxCell id="OFGFD8s86w9iyIirFIPD-70" value="- startingPosition: int" style="text;strokeColor=none;fillColor=none;align=left;verticalAlign=top;spacingLeft=4;spacingRight=4;overflow=hidden;rotatable=0;points=[[0,0.5],[1,0.5]];portConstraint=eastwest;whiteSpace=wrap;html=1;" parent="OFGFD8s86w9iyIirFIPD-17" vertex="1">
          <mxGeometry y="78" width="200" height="26" as="geometry" />
        </mxCell>
        <mxCell id="OFGFD8s86w9iyIirFIPD-71" value="- finalPositiion: int" style="text;strokeColor=none;fillColor=none;align=left;verticalAlign=top;spacingLeft=4;spacingRight=4;overflow=hidden;rotatable=0;points=[[0,0.5],[1,0.5]];portConstraint=eastwest;whiteSpace=wrap;html=1;" parent="OFGFD8s86w9iyIirFIPD-17" vertex="1">
          <mxGeometry y="104" width="200" height="26" as="geometry" />
        </mxCell>
        <mxCell id="OFGFD8s86w9iyIirFIPD-73" value="- person: Character" style="text;strokeColor=none;fillColor=none;align=left;verticalAlign=top;spacingLeft=4;spacingRight=4;overflow=hidden;rotatable=0;points=[[0,0.5],[1,0.5]];portConstraint=eastwest;whiteSpace=wrap;html=1;" parent="OFGFD8s86w9iyIirFIPD-17" vertex="1">
          <mxGeometry y="130" width="200" height="26" as="geometry" />
        </mxCell>
        <mxCell id="OFGFD8s86w9iyIirFIPD-21" value="" style="line;strokeWidth=1;fillColor=none;align=left;verticalAlign=middle;spacingTop=-1;spacingLeft=3;spacingRight=3;rotatable=0;labelPosition=right;points=[];portConstraint=eastwest;strokeColor=inherit;" parent="OFGFD8s86w9iyIirFIPD-17" vertex="1">
          <mxGeometry y="156" width="200" height="8" as="geometry" />
        </mxCell>
        <mxCell id="OFGFD8s86w9iyIirFIPD-22" value="+ Move(): void" style="text;strokeColor=none;fillColor=none;align=left;verticalAlign=top;spacingLeft=4;spacingRight=4;overflow=hidden;rotatable=0;points=[[0,0.5],[1,0.5]];portConstraint=eastwest;whiteSpace=wrap;html=1;" parent="OFGFD8s86w9iyIirFIPD-17" vertex="1">
          <mxGeometry y="164" width="200" height="26" as="geometry" />
        </mxCell>
        <mxCell id="OFGFD8s86w9iyIirFIPD-24" value="Obstacles" style="swimlane;fontStyle=1;align=center;verticalAlign=top;childLayout=stackLayout;horizontal=1;startSize=26;horizontalStack=0;resizeParent=1;resizeParentMax=0;resizeLast=0;collapsible=1;marginBottom=0;whiteSpace=wrap;html=1;" parent="1" vertex="1">
          <mxGeometry x="-699" y="-400" width="200" height="112" as="geometry" />
        </mxCell>
        <mxCell id="OFGFD8s86w9iyIirFIPD-25" value="- type: string" style="text;strokeColor=none;fillColor=none;align=left;verticalAlign=top;spacingLeft=4;spacingRight=4;overflow=hidden;rotatable=0;points=[[0,0.5],[1,0.5]];portConstraint=eastwest;whiteSpace=wrap;html=1;" parent="OFGFD8s86w9iyIirFIPD-24" vertex="1">
          <mxGeometry y="26" width="200" height="26" as="geometry" />
        </mxCell>
        <mxCell id="OFGFD8s86w9iyIirFIPD-40" value="- effectTime: float" style="text;strokeColor=none;fillColor=none;align=left;verticalAlign=top;spacingLeft=4;spacingRight=4;overflow=hidden;rotatable=0;points=[[0,0.5],[1,0.5]];portConstraint=eastwest;whiteSpace=wrap;html=1;" parent="OFGFD8s86w9iyIirFIPD-24" vertex="1">
          <mxGeometry y="52" width="200" height="26" as="geometry" />
        </mxCell>
        <mxCell id="OFGFD8s86w9iyIirFIPD-28" value="" style="line;strokeWidth=1;fillColor=none;align=left;verticalAlign=middle;spacingTop=-1;spacingLeft=3;spacingRight=3;rotatable=0;labelPosition=right;points=[];portConstraint=eastwest;strokeColor=inherit;" parent="OFGFD8s86w9iyIirFIPD-24" vertex="1">
          <mxGeometry y="78" width="200" height="8" as="geometry" />
        </mxCell>
        <mxCell id="OFGFD8s86w9iyIirFIPD-29" value="+ Effect(): string" style="text;strokeColor=none;fillColor=none;align=left;verticalAlign=top;spacingLeft=4;spacingRight=4;overflow=hidden;rotatable=0;points=[[0,0.5],[1,0.5]];portConstraint=eastwest;whiteSpace=wrap;html=1;" parent="OFGFD8s86w9iyIirFIPD-24" vertex="1">
          <mxGeometry y="86" width="200" height="26" as="geometry" />
        </mxCell>
        <mxCell id="OFGFD8s86w9iyIirFIPD-36" value="ObstacleBoost" style="swimlane;fontStyle=1;align=center;verticalAlign=top;childLayout=stackLayout;horizontal=1;startSize=26;horizontalStack=0;resizeParent=1;resizeParentMax=0;resizeLast=0;collapsible=1;marginBottom=0;whiteSpace=wrap;html=1;" parent="1" vertex="1">
          <mxGeometry x="-1199" y="-132" width="200" height="138" as="geometry" />
        </mxCell>
        <mxCell id="OFGFD8s86w9iyIirFIPD-37" value="- type: string" style="text;strokeColor=none;fillColor=none;align=left;verticalAlign=top;spacingLeft=4;spacingRight=4;overflow=hidden;rotatable=0;points=[[0,0.5],[1,0.5]];portConstraint=eastwest;whiteSpace=wrap;html=1;" parent="OFGFD8s86w9iyIirFIPD-36" vertex="1">
          <mxGeometry y="26" width="200" height="26" as="geometry" />
        </mxCell>
        <mxCell id="OFGFD8s86w9iyIirFIPD-55" value="- boostAmount: float" style="text;strokeColor=none;fillColor=none;align=left;verticalAlign=top;spacingLeft=4;spacingRight=4;overflow=hidden;rotatable=0;points=[[0,0.5],[1,0.5]];portConstraint=eastwest;whiteSpace=wrap;html=1;" parent="OFGFD8s86w9iyIirFIPD-36" vertex="1">
          <mxGeometry y="52" width="200" height="26" as="geometry" />
        </mxCell>
        <mxCell id="CuVekwpNMo5QbRq_H-KT-49" value="- effectTime: float" style="text;strokeColor=none;fillColor=none;align=left;verticalAlign=top;spacingLeft=4;spacingRight=4;overflow=hidden;rotatable=0;points=[[0,0.5],[1,0.5]];portConstraint=eastwest;whiteSpace=wrap;html=1;" parent="OFGFD8s86w9iyIirFIPD-36" vertex="1">
          <mxGeometry y="78" width="200" height="26" as="geometry" />
        </mxCell>
        <mxCell id="OFGFD8s86w9iyIirFIPD-38" value="" style="line;strokeWidth=1;fillColor=none;align=left;verticalAlign=middle;spacingTop=-1;spacingLeft=3;spacingRight=3;rotatable=0;labelPosition=right;points=[];portConstraint=eastwest;strokeColor=inherit;" parent="OFGFD8s86w9iyIirFIPD-36" vertex="1">
          <mxGeometry y="104" width="200" height="8" as="geometry" />
        </mxCell>
        <mxCell id="OFGFD8s86w9iyIirFIPD-39" value="+ Effect(): string" style="text;strokeColor=none;fillColor=none;align=left;verticalAlign=top;spacingLeft=4;spacingRight=4;overflow=hidden;rotatable=0;points=[[0,0.5],[1,0.5]];portConstraint=eastwest;whiteSpace=wrap;html=1;" parent="OFGFD8s86w9iyIirFIPD-36" vertex="1">
          <mxGeometry y="112" width="200" height="26" as="geometry" />
        </mxCell>
        <mxCell id="OFGFD8s86w9iyIirFIPD-41" value="FinalScene" style="swimlane;fontStyle=1;align=center;verticalAlign=top;childLayout=stackLayout;horizontal=1;startSize=26;horizontalStack=0;resizeParent=1;resizeParentMax=0;resizeLast=0;collapsible=1;marginBottom=0;whiteSpace=wrap;html=1;" parent="1" vertex="1">
          <mxGeometry x="450" y="-1320" width="200" height="130" as="geometry" />
        </mxCell>
        <mxCell id="OFGFD8s86w9iyIirFIPD-45" value="- finalPositiion: int" style="text;strokeColor=none;fillColor=none;align=left;verticalAlign=top;spacingLeft=4;spacingRight=4;overflow=hidden;rotatable=0;points=[[0,0.5],[1,0.5]];portConstraint=eastwest;whiteSpace=wrap;html=1;" parent="OFGFD8s86w9iyIirFIPD-41" vertex="1">
          <mxGeometry y="26" width="200" height="26" as="geometry" />
        </mxCell>
        <mxCell id="OFGFD8s86w9iyIirFIPD-46" value="" style="line;strokeWidth=1;fillColor=none;align=left;verticalAlign=middle;spacingTop=-1;spacingLeft=3;spacingRight=3;rotatable=0;labelPosition=right;points=[];portConstraint=eastwest;strokeColor=inherit;" parent="OFGFD8s86w9iyIirFIPD-41" vertex="1">
          <mxGeometry y="52" width="200" height="8" as="geometry" />
        </mxCell>
        <mxCell id="OFGFD8s86w9iyIirFIPD-48" value="+ implementAnimation(): void" style="text;strokeColor=none;fillColor=none;align=left;verticalAlign=top;spacingLeft=4;spacingRight=4;overflow=hidden;rotatable=0;points=[[0,0.5],[1,0.5]];portConstraint=eastwest;whiteSpace=wrap;html=1;" parent="OFGFD8s86w9iyIirFIPD-41" vertex="1">
          <mxGeometry y="60" width="200" height="26" as="geometry" />
        </mxCell>
        <mxCell id="PUqLCQDl67QB3bu-2gwk-31" value="+ LoadWinningScene(): void" style="text;strokeColor=none;fillColor=none;align=left;verticalAlign=top;spacingLeft=4;spacingRight=4;overflow=hidden;rotatable=0;points=[[0,0.5],[1,0.5]];portConstraint=eastwest;whiteSpace=wrap;html=1;" parent="OFGFD8s86w9iyIirFIPD-41" vertex="1">
          <mxGeometry y="86" width="200" height="22" as="geometry" />
        </mxCell>
        <mxCell id="PUqLCQDl67QB3bu-2gwk-32" value="+ LoadLoosingScene(): void" style="text;strokeColor=none;fillColor=none;align=left;verticalAlign=top;spacingLeft=4;spacingRight=4;overflow=hidden;rotatable=0;points=[[0,0.5],[1,0.5]];portConstraint=eastwest;whiteSpace=wrap;html=1;" parent="OFGFD8s86w9iyIirFIPD-41" vertex="1">
          <mxGeometry y="108" width="200" height="22" as="geometry" />
        </mxCell>
        <mxCell id="OFGFD8s86w9iyIirFIPD-56" value="ObstacleAttack" style="swimlane;fontStyle=1;align=center;verticalAlign=top;childLayout=stackLayout;horizontal=1;startSize=26;horizontalStack=0;resizeParent=1;resizeParentMax=0;resizeLast=0;collapsible=1;marginBottom=0;whiteSpace=wrap;html=1;" parent="1" vertex="1">
          <mxGeometry x="-130" y="-108" width="200" height="190" as="geometry" />
        </mxCell>
        <mxCell id="OFGFD8s86w9iyIirFIPD-57" value="- type: string" style="text;strokeColor=none;fillColor=none;align=left;verticalAlign=top;spacingLeft=4;spacingRight=4;overflow=hidden;rotatable=0;points=[[0,0.5],[1,0.5]];portConstraint=eastwest;whiteSpace=wrap;html=1;" parent="OFGFD8s86w9iyIirFIPD-56" vertex="1">
          <mxGeometry y="26" width="200" height="26" as="geometry" />
        </mxCell>
        <mxCell id="OFGFD8s86w9iyIirFIPD-58" value="- velocity: float" style="text;strokeColor=none;fillColor=none;align=left;verticalAlign=top;spacingLeft=4;spacingRight=4;overflow=hidden;rotatable=0;points=[[0,0.5],[1,0.5]];portConstraint=eastwest;whiteSpace=wrap;html=1;" parent="OFGFD8s86w9iyIirFIPD-56" vertex="1">
          <mxGeometry y="52" width="200" height="26" as="geometry" />
        </mxCell>
        <mxCell id="OFGFD8s86w9iyIirFIPD-63" value="- direction: string" style="text;strokeColor=none;fillColor=none;align=left;verticalAlign=top;spacingLeft=4;spacingRight=4;overflow=hidden;rotatable=0;points=[[0,0.5],[1,0.5]];portConstraint=eastwest;whiteSpace=wrap;html=1;" parent="OFGFD8s86w9iyIirFIPD-56" vertex="1">
          <mxGeometry y="78" width="200" height="26" as="geometry" />
        </mxCell>
        <mxCell id="OFGFD8s86w9iyIirFIPD-127" value="- lifeTime: float:&amp;nbsp;" style="text;strokeColor=none;fillColor=none;align=left;verticalAlign=top;spacingLeft=4;spacingRight=4;overflow=hidden;rotatable=0;points=[[0,0.5],[1,0.5]];portConstraint=eastwest;whiteSpace=wrap;html=1;" parent="OFGFD8s86w9iyIirFIPD-56" vertex="1">
          <mxGeometry y="104" width="200" height="26" as="geometry" />
        </mxCell>
        <mxCell id="OFGFD8s86w9iyIirFIPD-128" value="- maxCrashes: int" style="text;strokeColor=none;fillColor=none;align=left;verticalAlign=top;spacingLeft=4;spacingRight=4;overflow=hidden;rotatable=0;points=[[0,0.5],[1,0.5]];portConstraint=eastwest;whiteSpace=wrap;html=1;" parent="OFGFD8s86w9iyIirFIPD-56" vertex="1">
          <mxGeometry y="130" width="200" height="26" as="geometry" />
        </mxCell>
        <mxCell id="OFGFD8s86w9iyIirFIPD-59" value="" style="line;strokeWidth=1;fillColor=none;align=left;verticalAlign=middle;spacingTop=-1;spacingLeft=3;spacingRight=3;rotatable=0;labelPosition=right;points=[];portConstraint=eastwest;strokeColor=inherit;" parent="OFGFD8s86w9iyIirFIPD-56" vertex="1">
          <mxGeometry y="156" width="200" height="8" as="geometry" />
        </mxCell>
        <mxCell id="OFGFD8s86w9iyIirFIPD-60" value="+ Effect(): string" style="text;strokeColor=none;fillColor=none;align=left;verticalAlign=top;spacingLeft=4;spacingRight=4;overflow=hidden;rotatable=0;points=[[0,0.5],[1,0.5]];portConstraint=eastwest;whiteSpace=wrap;html=1;" parent="OFGFD8s86w9iyIirFIPD-56" vertex="1">
          <mxGeometry y="164" width="200" height="26" as="geometry" />
        </mxCell>
        <mxCell id="OFGFD8s86w9iyIirFIPD-74" value="VehicleController" style="swimlane;fontStyle=1;align=center;verticalAlign=top;childLayout=stackLayout;horizontal=1;startSize=26;horizontalStack=0;resizeParent=1;resizeParentMax=0;resizeLast=0;collapsible=1;marginBottom=0;whiteSpace=wrap;html=1;" parent="1" vertex="1">
          <mxGeometry x="-1710" y="-275" width="200" height="164" as="geometry" />
        </mxCell>
        <mxCell id="OFGFD8s86w9iyIirFIPD-79" value="- person: Character" style="text;strokeColor=none;fillColor=none;align=left;verticalAlign=top;spacingLeft=4;spacingRight=4;overflow=hidden;rotatable=0;points=[[0,0.5],[1,0.5]];portConstraint=eastwest;whiteSpace=wrap;html=1;" parent="OFGFD8s86w9iyIirFIPD-74" vertex="1">
          <mxGeometry y="26" width="200" height="26" as="geometry" />
        </mxCell>
        <mxCell id="cp9rJf0xC1L9SVWynJWX-63" value="- type: str" style="text;strokeColor=none;fillColor=none;align=left;verticalAlign=top;spacingLeft=4;spacingRight=4;overflow=hidden;rotatable=0;points=[[0,0.5],[1,0.5]];portConstraint=eastwest;whiteSpace=wrap;html=1;" parent="OFGFD8s86w9iyIirFIPD-74" vertex="1">
          <mxGeometry y="52" width="200" height="26" as="geometry" />
        </mxCell>
        <mxCell id="cp9rJf0xC1L9SVWynJWX-64" value="- speed: float" style="text;strokeColor=none;fillColor=none;align=left;verticalAlign=top;spacingLeft=4;spacingRight=4;overflow=hidden;rotatable=0;points=[[0,0.5],[1,0.5]];portConstraint=eastwest;whiteSpace=wrap;html=1;" parent="OFGFD8s86w9iyIirFIPD-74" vertex="1">
          <mxGeometry y="78" width="200" height="26" as="geometry" />
        </mxCell>
        <mxCell id="cp9rJf0xC1L9SVWynJWX-65" value="- position: Vector2" style="text;strokeColor=none;fillColor=none;align=left;verticalAlign=top;spacingLeft=4;spacingRight=4;overflow=hidden;rotatable=0;points=[[0,0.5],[1,0.5]];portConstraint=eastwest;whiteSpace=wrap;html=1;" parent="OFGFD8s86w9iyIirFIPD-74" vertex="1">
          <mxGeometry y="104" width="200" height="26" as="geometry" />
        </mxCell>
        <mxCell id="OFGFD8s86w9iyIirFIPD-80" value="" style="line;strokeWidth=1;fillColor=none;align=left;verticalAlign=middle;spacingTop=-1;spacingLeft=3;spacingRight=3;rotatable=0;labelPosition=right;points=[];portConstraint=eastwest;strokeColor=inherit;" parent="OFGFD8s86w9iyIirFIPD-74" vertex="1">
          <mxGeometry y="130" width="200" height="8" as="geometry" />
        </mxCell>
        <mxCell id="OFGFD8s86w9iyIirFIPD-81" value="+ Move(): void" style="text;strokeColor=none;fillColor=none;align=left;verticalAlign=top;spacingLeft=4;spacingRight=4;overflow=hidden;rotatable=0;points=[[0,0.5],[1,0.5]];portConstraint=eastwest;whiteSpace=wrap;html=1;" parent="OFGFD8s86w9iyIirFIPD-74" vertex="1">
          <mxGeometry y="138" width="200" height="26" as="geometry" />
        </mxCell>
        <mxCell id="OFGFD8s86w9iyIirFIPD-82" value="AIAgent" style="swimlane;fontStyle=1;align=center;verticalAlign=top;childLayout=stackLayout;horizontal=1;startSize=26;horizontalStack=0;resizeParent=1;resizeParentMax=0;resizeLast=0;collapsible=1;marginBottom=0;whiteSpace=wrap;html=1;" parent="1" vertex="1">
          <mxGeometry x="-1540" y="-670" width="280" height="294" as="geometry" />
        </mxCell>
        <mxCell id="OFGFD8s86w9iyIirFIPD-85" value="- character: Character" style="text;strokeColor=none;fillColor=none;align=left;verticalAlign=top;spacingLeft=4;spacingRight=4;overflow=hidden;rotatable=0;points=[[0,0.5],[1,0.5]];portConstraint=eastwest;whiteSpace=wrap;html=1;" parent="OFGFD8s86w9iyIirFIPD-82" vertex="1">
          <mxGeometry y="26" width="280" height="26" as="geometry" />
        </mxCell>
        <mxCell id="PUqLCQDl67QB3bu-2gwk-4" value="- vehicle: Vehicle" style="text;strokeColor=none;fillColor=none;align=left;verticalAlign=top;spacingLeft=4;spacingRight=4;overflow=hidden;rotatable=0;points=[[0,0.5],[1,0.5]];portConstraint=eastwest;whiteSpace=wrap;html=1;" parent="OFGFD8s86w9iyIirFIPD-82" vertex="1">
          <mxGeometry y="52" width="280" height="26" as="geometry" />
        </mxCell>
        <mxCell id="PUqLCQDl67QB3bu-2gwk-1" value="- currentPosition: int" style="text;strokeColor=none;fillColor=none;align=left;verticalAlign=top;spacingLeft=4;spacingRight=4;overflow=hidden;rotatable=0;points=[[0,0.5],[1,0.5]];portConstraint=eastwest;whiteSpace=wrap;html=1;" parent="OFGFD8s86w9iyIirFIPD-82" vertex="1">
          <mxGeometry y="78" width="280" height="26" as="geometry" />
        </mxCell>
        <mxCell id="PUqLCQDl67QB3bu-2gwk-2" value="- behaviorState: string" style="text;strokeColor=none;fillColor=none;align=left;verticalAlign=top;spacingLeft=4;spacingRight=4;overflow=hidden;rotatable=0;points=[[0,0.5],[1,0.5]];portConstraint=eastwest;whiteSpace=wrap;html=1;" parent="OFGFD8s86w9iyIirFIPD-82" vertex="1">
          <mxGeometry y="104" width="280" height="26" as="geometry" />
        </mxCell>
        <mxCell id="PUqLCQDl67QB3bu-2gwk-3" value="- powerUps: Obstacle" style="text;strokeColor=none;fillColor=none;align=left;verticalAlign=top;spacingLeft=4;spacingRight=4;overflow=hidden;rotatable=0;points=[[0,0.5],[1,0.5]];portConstraint=eastwest;whiteSpace=wrap;html=1;" parent="OFGFD8s86w9iyIirFIPD-82" vertex="1">
          <mxGeometry y="130" width="280" height="26" as="geometry" />
        </mxCell>
        <mxCell id="OFGFD8s86w9iyIirFIPD-88" value="" style="line;strokeWidth=1;fillColor=none;align=left;verticalAlign=middle;spacingTop=-1;spacingLeft=3;spacingRight=3;rotatable=0;labelPosition=right;points=[];portConstraint=eastwest;strokeColor=inherit;" parent="OFGFD8s86w9iyIirFIPD-82" vertex="1">
          <mxGeometry y="156" width="280" height="8" as="geometry" />
        </mxCell>
        <mxCell id="OFGFD8s86w9iyIirFIPD-89" value="+ Move(): void" style="text;strokeColor=none;fillColor=none;align=left;verticalAlign=top;spacingLeft=4;spacingRight=4;overflow=hidden;rotatable=0;points=[[0,0.5],[1,0.5]];portConstraint=eastwest;whiteSpace=wrap;html=1;" parent="OFGFD8s86w9iyIirFIPD-82" vertex="1">
          <mxGeometry y="164" width="280" height="26" as="geometry" />
        </mxCell>
        <mxCell id="PUqLCQDl67QB3bu-2gwk-5" value="+ UsePowerUps(): void" style="text;strokeColor=none;fillColor=none;align=left;verticalAlign=top;spacingLeft=4;spacingRight=4;overflow=hidden;rotatable=0;points=[[0,0.5],[1,0.5]];portConstraint=eastwest;whiteSpace=wrap;html=1;" parent="OFGFD8s86w9iyIirFIPD-82" vertex="1">
          <mxGeometry y="190" width="280" height="26" as="geometry" />
        </mxCell>
        <mxCell id="PUqLCQDl67QB3bu-2gwk-6" value="+ UpdatePosition(newPosition: Position):&amp;nbsp;int" style="text;strokeColor=none;fillColor=none;align=left;verticalAlign=top;spacingLeft=4;spacingRight=4;overflow=hidden;rotatable=0;points=[[0,0.5],[1,0.5]];portConstraint=eastwest;whiteSpace=wrap;html=1;" parent="OFGFD8s86w9iyIirFIPD-82" vertex="1">
          <mxGeometry y="216" width="280" height="26" as="geometry" />
        </mxCell>
        <mxCell id="PUqLCQDl67QB3bu-2gwk-7" value="+ ReactToPlayer(playerPostion: Position): void" style="text;strokeColor=none;fillColor=none;align=left;verticalAlign=top;spacingLeft=4;spacingRight=4;overflow=hidden;rotatable=0;points=[[0,0.5],[1,0.5]];portConstraint=eastwest;whiteSpace=wrap;html=1;" parent="OFGFD8s86w9iyIirFIPD-82" vertex="1">
          <mxGeometry y="242" width="280" height="26" as="geometry" />
        </mxCell>
        <mxCell id="PUqLCQDl67QB3bu-2gwk-8" value="+ DecideBehavior(): string" style="text;strokeColor=none;fillColor=none;align=left;verticalAlign=top;spacingLeft=4;spacingRight=4;overflow=hidden;rotatable=0;points=[[0,0.5],[1,0.5]];portConstraint=eastwest;whiteSpace=wrap;html=1;" parent="OFGFD8s86w9iyIirFIPD-82" vertex="1">
          <mxGeometry y="268" width="280" height="26" as="geometry" />
        </mxCell>
        <mxCell id="OFGFD8s86w9iyIirFIPD-90" value="Events (USER)" style="swimlane;fontStyle=1;align=center;verticalAlign=top;childLayout=stackLayout;horizontal=1;startSize=26;horizontalStack=0;resizeParent=1;resizeParentMax=0;resizeLast=0;collapsible=1;marginBottom=0;whiteSpace=wrap;html=1;" parent="1" vertex="1">
          <mxGeometry x="-1980" y="-670" width="270" height="242" as="geometry" />
        </mxCell>
        <mxCell id="OFGFD8s86w9iyIirFIPD-91" value="- person: Character" style="text;strokeColor=none;fillColor=none;align=left;verticalAlign=top;spacingLeft=4;spacingRight=4;overflow=hidden;rotatable=0;points=[[0,0.5],[1,0.5]];portConstraint=eastwest;whiteSpace=wrap;html=1;" parent="OFGFD8s86w9iyIirFIPD-90" vertex="1">
          <mxGeometry y="26" width="270" height="26" as="geometry" />
        </mxCell>
        <mxCell id="cp9rJf0xC1L9SVWynJWX-67" value="- currentPosition: int" style="text;strokeColor=none;fillColor=none;align=left;verticalAlign=top;spacingLeft=4;spacingRight=4;overflow=hidden;rotatable=0;points=[[0,0.5],[1,0.5]];portConstraint=eastwest;whiteSpace=wrap;html=1;" parent="OFGFD8s86w9iyIirFIPD-90" vertex="1">
          <mxGeometry y="52" width="270" height="26" as="geometry" />
        </mxCell>
        <mxCell id="cp9rJf0xC1L9SVWynJWX-68" value="- lapsCompleted. int" style="text;strokeColor=none;fillColor=none;align=left;verticalAlign=top;spacingLeft=4;spacingRight=4;overflow=hidden;rotatable=0;points=[[0,0.5],[1,0.5]];portConstraint=eastwest;whiteSpace=wrap;html=1;" parent="OFGFD8s86w9iyIirFIPD-90" vertex="1">
          <mxGeometry y="78" width="270" height="26" as="geometry" />
        </mxCell>
        <mxCell id="cp9rJf0xC1L9SVWynJWX-69" value="- powerUps: Obstacle" style="text;strokeColor=none;fillColor=none;align=left;verticalAlign=top;spacingLeft=4;spacingRight=4;overflow=hidden;rotatable=0;points=[[0,0.5],[1,0.5]];portConstraint=eastwest;whiteSpace=wrap;html=1;" parent="OFGFD8s86w9iyIirFIPD-90" vertex="1">
          <mxGeometry y="104" width="270" height="26" as="geometry" />
        </mxCell>
        <mxCell id="OFGFD8s86w9iyIirFIPD-92" value="" style="line;strokeWidth=1;fillColor=none;align=left;verticalAlign=middle;spacingTop=-1;spacingLeft=3;spacingRight=3;rotatable=0;labelPosition=right;points=[];portConstraint=eastwest;strokeColor=inherit;" parent="OFGFD8s86w9iyIirFIPD-90" vertex="1">
          <mxGeometry y="130" width="270" height="8" as="geometry" />
        </mxCell>
        <mxCell id="OFGFD8s86w9iyIirFIPD-93" value="+ Move(): void" style="text;strokeColor=none;fillColor=none;align=left;verticalAlign=top;spacingLeft=4;spacingRight=4;overflow=hidden;rotatable=0;points=[[0,0.5],[1,0.5]];portConstraint=eastwest;whiteSpace=wrap;html=1;" parent="OFGFD8s86w9iyIirFIPD-90" vertex="1">
          <mxGeometry y="138" width="270" height="26" as="geometry" />
        </mxCell>
        <mxCell id="cp9rJf0xC1L9SVWynJWX-70" value="+ UsePowerUps(): void" style="text;strokeColor=none;fillColor=none;align=left;verticalAlign=top;spacingLeft=4;spacingRight=4;overflow=hidden;rotatable=0;points=[[0,0.5],[1,0.5]];portConstraint=eastwest;whiteSpace=wrap;html=1;" parent="OFGFD8s86w9iyIirFIPD-90" vertex="1">
          <mxGeometry y="164" width="270" height="26" as="geometry" />
        </mxCell>
        <mxCell id="cp9rJf0xC1L9SVWynJWX-71" value="+ UpdatePosition(newPosition: Position): int" style="text;strokeColor=none;fillColor=none;align=left;verticalAlign=top;spacingLeft=4;spacingRight=4;overflow=hidden;rotatable=0;points=[[0,0.5],[1,0.5]];portConstraint=eastwest;whiteSpace=wrap;html=1;" parent="OFGFD8s86w9iyIirFIPD-90" vertex="1">
          <mxGeometry y="190" width="270" height="26" as="geometry" />
        </mxCell>
        <mxCell id="cp9rJf0xC1L9SVWynJWX-72" value="+ RecordEvent(): void" style="text;strokeColor=none;fillColor=none;align=left;verticalAlign=top;spacingLeft=4;spacingRight=4;overflow=hidden;rotatable=0;points=[[0,0.5],[1,0.5]];portConstraint=eastwest;whiteSpace=wrap;html=1;" parent="OFGFD8s86w9iyIirFIPD-90" vertex="1">
          <mxGeometry y="216" width="270" height="26" as="geometry" />
        </mxCell>
        <mxCell id="OFGFD8s86w9iyIirFIPD-94" value="ObstacleScene" style="swimlane;fontStyle=1;align=center;verticalAlign=top;childLayout=stackLayout;horizontal=1;startSize=26;horizontalStack=0;resizeParent=1;resizeParentMax=0;resizeLast=0;collapsible=1;marginBottom=0;whiteSpace=wrap;html=1;" parent="1" vertex="1">
          <mxGeometry x="-699" y="-132" width="200" height="86" as="geometry" />
        </mxCell>
        <mxCell id="OFGFD8s86w9iyIirFIPD-95" value="- type: string" style="text;strokeColor=none;fillColor=none;align=left;verticalAlign=top;spacingLeft=4;spacingRight=4;overflow=hidden;rotatable=0;points=[[0,0.5],[1,0.5]];portConstraint=eastwest;whiteSpace=wrap;html=1;" parent="OFGFD8s86w9iyIirFIPD-94" vertex="1">
          <mxGeometry y="26" width="200" height="26" as="geometry" />
        </mxCell>
        <mxCell id="OFGFD8s86w9iyIirFIPD-97" value="" style="line;strokeWidth=1;fillColor=none;align=left;verticalAlign=middle;spacingTop=-1;spacingLeft=3;spacingRight=3;rotatable=0;labelPosition=right;points=[];portConstraint=eastwest;strokeColor=inherit;" parent="OFGFD8s86w9iyIirFIPD-94" vertex="1">
          <mxGeometry y="52" width="200" height="8" as="geometry" />
        </mxCell>
        <mxCell id="OFGFD8s86w9iyIirFIPD-98" value="+ Effect(): string" style="text;strokeColor=none;fillColor=none;align=left;verticalAlign=top;spacingLeft=4;spacingRight=4;overflow=hidden;rotatable=0;points=[[0,0.5],[1,0.5]];portConstraint=eastwest;whiteSpace=wrap;html=1;" parent="OFGFD8s86w9iyIirFIPD-94" vertex="1">
          <mxGeometry y="60" width="200" height="26" as="geometry" />
        </mxCell>
        <mxCell id="OFGFD8s86w9iyIirFIPD-99" value="" style="rounded=0;whiteSpace=wrap;html=1;fillColor=none;" parent="1" vertex="1">
          <mxGeometry x="-1230" y="-760" width="2770" height="1110" as="geometry" />
        </mxCell>
        <mxCell id="OFGFD8s86w9iyIirFIPD-100" value="" style="rounded=0;whiteSpace=wrap;html=1;fillColor=none;" parent="1" vertex="1">
          <mxGeometry x="-2080" y="-760" width="2180" height="1110" as="geometry" />
        </mxCell>
        <mxCell id="OFGFD8s86w9iyIirFIPD-101" value="" style="rounded=0;whiteSpace=wrap;html=1;fillColor=none;" parent="1" vertex="1">
          <mxGeometry x="-2000" y="-2120" width="3360" height="1360" as="geometry" />
        </mxCell>
        <mxCell id="OFGFD8s86w9iyIirFIPD-102" value="MiniMap" style="swimlane;fontStyle=1;align=center;verticalAlign=top;childLayout=stackLayout;horizontal=1;startSize=26;horizontalStack=0;resizeParent=1;resizeParentMax=0;resizeLast=0;collapsible=1;marginBottom=0;whiteSpace=wrap;html=1;" parent="1" vertex="1">
          <mxGeometry x="860" y="-1359" width="200" height="190" as="geometry" />
        </mxCell>
        <mxCell id="OFGFD8s86w9iyIirFIPD-103" value="- personFace: UIElement" style="text;strokeColor=none;fillColor=none;align=left;verticalAlign=top;spacingLeft=4;spacingRight=4;overflow=hidden;rotatable=0;points=[[0,0.5],[1,0.5]];portConstraint=eastwest;whiteSpace=wrap;html=1;" parent="OFGFD8s86w9iyIirFIPD-102" vertex="1">
          <mxGeometry y="26" width="200" height="26" as="geometry" />
        </mxCell>
        <mxCell id="OFGFD8s86w9iyIirFIPD-104" value="- circuitLayer: UIElement" style="text;strokeColor=none;fillColor=none;align=left;verticalAlign=top;spacingLeft=4;spacingRight=4;overflow=hidden;rotatable=0;points=[[0,0.5],[1,0.5]];portConstraint=eastwest;whiteSpace=wrap;html=1;" parent="OFGFD8s86w9iyIirFIPD-102" vertex="1">
          <mxGeometry y="52" width="200" height="26" as="geometry" />
        </mxCell>
        <mxCell id="CuVekwpNMo5QbRq_H-KT-58" value="- playerPosition: Vector2" style="text;strokeColor=none;fillColor=none;align=left;verticalAlign=top;spacingLeft=4;spacingRight=4;overflow=hidden;rotatable=0;points=[[0,0.5],[1,0.5]];portConstraint=eastwest;whiteSpace=wrap;html=1;" parent="OFGFD8s86w9iyIirFIPD-102" vertex="1">
          <mxGeometry y="78" width="200" height="26" as="geometry" />
        </mxCell>
        <mxCell id="CuVekwpNMo5QbRq_H-KT-59" value="- mapImage: UIElement" style="text;strokeColor=none;fillColor=none;align=left;verticalAlign=top;spacingLeft=4;spacingRight=4;overflow=hidden;rotatable=0;points=[[0,0.5],[1,0.5]];portConstraint=eastwest;whiteSpace=wrap;html=1;" parent="OFGFD8s86w9iyIirFIPD-102" vertex="1">
          <mxGeometry y="104" width="200" height="26" as="geometry" />
        </mxCell>
        <mxCell id="OFGFD8s86w9iyIirFIPD-105" value="" style="line;strokeWidth=1;fillColor=none;align=left;verticalAlign=middle;spacingTop=-1;spacingLeft=3;spacingRight=3;rotatable=0;labelPosition=right;points=[];portConstraint=eastwest;strokeColor=inherit;" parent="OFGFD8s86w9iyIirFIPD-102" vertex="1">
          <mxGeometry y="130" width="200" height="8" as="geometry" />
        </mxCell>
        <mxCell id="OFGFD8s86w9iyIirFIPD-106" value="+ Show(): void&lt;div&gt;&lt;br&gt;&lt;/div&gt;" style="text;strokeColor=none;fillColor=none;align=left;verticalAlign=top;spacingLeft=4;spacingRight=4;overflow=hidden;rotatable=0;points=[[0,0.5],[1,0.5]];portConstraint=eastwest;whiteSpace=wrap;html=1;" parent="OFGFD8s86w9iyIirFIPD-102" vertex="1">
          <mxGeometry y="138" width="200" height="26" as="geometry" />
        </mxCell>
        <mxCell id="CuVekwpNMo5QbRq_H-KT-57" value="&lt;div&gt;+ UpdatePlayerPositoin(): void&lt;/div&gt;" style="text;strokeColor=none;fillColor=none;align=left;verticalAlign=top;spacingLeft=4;spacingRight=4;overflow=hidden;rotatable=0;points=[[0,0.5],[1,0.5]];portConstraint=eastwest;whiteSpace=wrap;html=1;" parent="OFGFD8s86w9iyIirFIPD-102" vertex="1">
          <mxGeometry y="164" width="200" height="26" as="geometry" />
        </mxCell>
        <mxCell id="OFGFD8s86w9iyIirFIPD-107" value="Mushrooms" style="swimlane;fontStyle=1;align=center;verticalAlign=top;childLayout=stackLayout;horizontal=1;startSize=26;horizontalStack=0;resizeParent=1;resizeParentMax=0;resizeLast=0;collapsible=1;marginBottom=0;whiteSpace=wrap;html=1;" parent="1" vertex="1">
          <mxGeometry x="-1199" y="80" width="200" height="112" as="geometry" />
        </mxCell>
        <mxCell id="OFGFD8s86w9iyIirFIPD-108" value="- type: string" style="text;strokeColor=none;fillColor=none;align=left;verticalAlign=top;spacingLeft=4;spacingRight=4;overflow=hidden;rotatable=0;points=[[0,0.5],[1,0.5]];portConstraint=eastwest;whiteSpace=wrap;html=1;" parent="OFGFD8s86w9iyIirFIPD-107" vertex="1">
          <mxGeometry y="26" width="200" height="26" as="geometry" />
        </mxCell>
        <mxCell id="OFGFD8s86w9iyIirFIPD-109" value="- boostAmount: float" style="text;strokeColor=none;fillColor=none;align=left;verticalAlign=top;spacingLeft=4;spacingRight=4;overflow=hidden;rotatable=0;points=[[0,0.5],[1,0.5]];portConstraint=eastwest;whiteSpace=wrap;html=1;" parent="OFGFD8s86w9iyIirFIPD-107" vertex="1">
          <mxGeometry y="52" width="200" height="26" as="geometry" />
        </mxCell>
        <mxCell id="OFGFD8s86w9iyIirFIPD-110" value="" style="line;strokeWidth=1;fillColor=none;align=left;verticalAlign=middle;spacingTop=-1;spacingLeft=3;spacingRight=3;rotatable=0;labelPosition=right;points=[];portConstraint=eastwest;strokeColor=inherit;" parent="OFGFD8s86w9iyIirFIPD-107" vertex="1">
          <mxGeometry y="78" width="200" height="8" as="geometry" />
        </mxCell>
        <mxCell id="OFGFD8s86w9iyIirFIPD-111" value="+ Effect(): string" style="text;strokeColor=none;fillColor=none;align=left;verticalAlign=top;spacingLeft=4;spacingRight=4;overflow=hidden;rotatable=0;points=[[0,0.5],[1,0.5]];portConstraint=eastwest;whiteSpace=wrap;html=1;" parent="OFGFD8s86w9iyIirFIPD-107" vertex="1">
          <mxGeometry y="86" width="200" height="26" as="geometry" />
        </mxCell>
        <mxCell id="OFGFD8s86w9iyIirFIPD-112" value="Wall" style="swimlane;fontStyle=1;align=center;verticalAlign=top;childLayout=stackLayout;horizontal=1;startSize=26;horizontalStack=0;resizeParent=1;resizeParentMax=0;resizeLast=0;collapsible=1;marginBottom=0;whiteSpace=wrap;html=1;" parent="1" vertex="1">
          <mxGeometry x="-929" y="83" width="200" height="86" as="geometry" />
        </mxCell>
        <mxCell id="OFGFD8s86w9iyIirFIPD-113" value="- type: string" style="text;strokeColor=none;fillColor=none;align=left;verticalAlign=top;spacingLeft=4;spacingRight=4;overflow=hidden;rotatable=0;points=[[0,0.5],[1,0.5]];portConstraint=eastwest;whiteSpace=wrap;html=1;" parent="OFGFD8s86w9iyIirFIPD-112" vertex="1">
          <mxGeometry y="26" width="200" height="26" as="geometry" />
        </mxCell>
        <mxCell id="OFGFD8s86w9iyIirFIPD-115" value="" style="line;strokeWidth=1;fillColor=none;align=left;verticalAlign=middle;spacingTop=-1;spacingLeft=3;spacingRight=3;rotatable=0;labelPosition=right;points=[];portConstraint=eastwest;strokeColor=inherit;" parent="OFGFD8s86w9iyIirFIPD-112" vertex="1">
          <mxGeometry y="52" width="200" height="8" as="geometry" />
        </mxCell>
        <mxCell id="OFGFD8s86w9iyIirFIPD-116" value="+ Effect(): string" style="text;strokeColor=none;fillColor=none;align=left;verticalAlign=top;spacingLeft=4;spacingRight=4;overflow=hidden;rotatable=0;points=[[0,0.5],[1,0.5]];portConstraint=eastwest;whiteSpace=wrap;html=1;" parent="OFGFD8s86w9iyIirFIPD-112" vertex="1">
          <mxGeometry y="60" width="200" height="26" as="geometry" />
        </mxCell>
        <mxCell id="OFGFD8s86w9iyIirFIPD-117" value="Fence" style="swimlane;fontStyle=1;align=center;verticalAlign=top;childLayout=stackLayout;horizontal=1;startSize=26;horizontalStack=0;resizeParent=1;resizeParentMax=0;resizeLast=0;collapsible=1;marginBottom=0;whiteSpace=wrap;html=1;" parent="1" vertex="1">
          <mxGeometry x="-459" y="80" width="200" height="86" as="geometry" />
        </mxCell>
        <mxCell id="OFGFD8s86w9iyIirFIPD-118" value="- type: string" style="text;strokeColor=none;fillColor=none;align=left;verticalAlign=top;spacingLeft=4;spacingRight=4;overflow=hidden;rotatable=0;points=[[0,0.5],[1,0.5]];portConstraint=eastwest;whiteSpace=wrap;html=1;" parent="OFGFD8s86w9iyIirFIPD-117" vertex="1">
          <mxGeometry y="26" width="200" height="26" as="geometry" />
        </mxCell>
        <mxCell id="OFGFD8s86w9iyIirFIPD-120" value="" style="line;strokeWidth=1;fillColor=none;align=left;verticalAlign=middle;spacingTop=-1;spacingLeft=3;spacingRight=3;rotatable=0;labelPosition=right;points=[];portConstraint=eastwest;strokeColor=inherit;" parent="OFGFD8s86w9iyIirFIPD-117" vertex="1">
          <mxGeometry y="52" width="200" height="8" as="geometry" />
        </mxCell>
        <mxCell id="OFGFD8s86w9iyIirFIPD-121" value="+ Effect(): string" style="text;strokeColor=none;fillColor=none;align=left;verticalAlign=top;spacingLeft=4;spacingRight=4;overflow=hidden;rotatable=0;points=[[0,0.5],[1,0.5]];portConstraint=eastwest;whiteSpace=wrap;html=1;" parent="OFGFD8s86w9iyIirFIPD-117" vertex="1">
          <mxGeometry y="60" width="200" height="26" as="geometry" />
        </mxCell>
        <mxCell id="OFGFD8s86w9iyIirFIPD-122" value="Monster" style="swimlane;fontStyle=1;align=center;verticalAlign=top;childLayout=stackLayout;horizontal=1;startSize=26;horizontalStack=0;resizeParent=1;resizeParentMax=0;resizeLast=0;collapsible=1;marginBottom=0;whiteSpace=wrap;html=1;" parent="1" vertex="1">
          <mxGeometry x="-699" y="83" width="200" height="112" as="geometry" />
        </mxCell>
        <mxCell id="OFGFD8s86w9iyIirFIPD-123" value="- type: string" style="text;strokeColor=none;fillColor=none;align=left;verticalAlign=top;spacingLeft=4;spacingRight=4;overflow=hidden;rotatable=0;points=[[0,0.5],[1,0.5]];portConstraint=eastwest;whiteSpace=wrap;html=1;" parent="OFGFD8s86w9iyIirFIPD-122" vertex="1">
          <mxGeometry y="26" width="200" height="26" as="geometry" />
        </mxCell>
        <mxCell id="OFGFD8s86w9iyIirFIPD-124" value="- boostAmount: float" style="text;strokeColor=none;fillColor=none;align=left;verticalAlign=top;spacingLeft=4;spacingRight=4;overflow=hidden;rotatable=0;points=[[0,0.5],[1,0.5]];portConstraint=eastwest;whiteSpace=wrap;html=1;" parent="OFGFD8s86w9iyIirFIPD-122" vertex="1">
          <mxGeometry y="52" width="200" height="26" as="geometry" />
        </mxCell>
        <mxCell id="OFGFD8s86w9iyIirFIPD-125" value="" style="line;strokeWidth=1;fillColor=none;align=left;verticalAlign=middle;spacingTop=-1;spacingLeft=3;spacingRight=3;rotatable=0;labelPosition=right;points=[];portConstraint=eastwest;strokeColor=inherit;" parent="OFGFD8s86w9iyIirFIPD-122" vertex="1">
          <mxGeometry y="78" width="200" height="8" as="geometry" />
        </mxCell>
        <mxCell id="OFGFD8s86w9iyIirFIPD-126" value="+ Effect(): string" style="text;strokeColor=none;fillColor=none;align=left;verticalAlign=top;spacingLeft=4;spacingRight=4;overflow=hidden;rotatable=0;points=[[0,0.5],[1,0.5]];portConstraint=eastwest;whiteSpace=wrap;html=1;" parent="OFGFD8s86w9iyIirFIPD-122" vertex="1">
          <mxGeometry y="86" width="200" height="26" as="geometry" />
        </mxCell>
        <mxCell id="OFGFD8s86w9iyIirFIPD-129" value="Gun" style="swimlane;fontStyle=1;align=center;verticalAlign=top;childLayout=stackLayout;horizontal=1;startSize=26;horizontalStack=0;resizeParent=1;resizeParentMax=0;resizeLast=0;collapsible=1;marginBottom=0;whiteSpace=wrap;html=1;" parent="1" vertex="1">
          <mxGeometry x="-130" y="150" width="200" height="112" as="geometry" />
        </mxCell>
        <mxCell id="OFGFD8s86w9iyIirFIPD-130" value="- type: string" style="text;strokeColor=none;fillColor=none;align=left;verticalAlign=top;spacingLeft=4;spacingRight=4;overflow=hidden;rotatable=0;points=[[0,0.5],[1,0.5]];portConstraint=eastwest;whiteSpace=wrap;html=1;" parent="OFGFD8s86w9iyIirFIPD-129" vertex="1">
          <mxGeometry y="26" width="200" height="26" as="geometry" />
        </mxCell>
        <mxCell id="OFGFD8s86w9iyIirFIPD-131" value="- boost: float" style="text;strokeColor=none;fillColor=none;align=left;verticalAlign=top;spacingLeft=4;spacingRight=4;overflow=hidden;rotatable=0;points=[[0,0.5],[1,0.5]];portConstraint=eastwest;whiteSpace=wrap;html=1;" parent="OFGFD8s86w9iyIirFIPD-129" vertex="1">
          <mxGeometry y="52" width="200" height="26" as="geometry" />
        </mxCell>
        <mxCell id="OFGFD8s86w9iyIirFIPD-132" value="" style="line;strokeWidth=1;fillColor=none;align=left;verticalAlign=middle;spacingTop=-1;spacingLeft=3;spacingRight=3;rotatable=0;labelPosition=right;points=[];portConstraint=eastwest;strokeColor=inherit;" parent="OFGFD8s86w9iyIirFIPD-129" vertex="1">
          <mxGeometry y="78" width="200" height="8" as="geometry" />
        </mxCell>
        <mxCell id="OFGFD8s86w9iyIirFIPD-133" value="+ Effect(): string" style="text;strokeColor=none;fillColor=none;align=left;verticalAlign=top;spacingLeft=4;spacingRight=4;overflow=hidden;rotatable=0;points=[[0,0.5],[1,0.5]];portConstraint=eastwest;whiteSpace=wrap;html=1;" parent="OFGFD8s86w9iyIirFIPD-129" vertex="1">
          <mxGeometry y="86" width="200" height="26" as="geometry" />
        </mxCell>
        <mxCell id="OFGFD8s86w9iyIirFIPD-138" value="Rounds" style="swimlane;fontStyle=1;align=center;verticalAlign=top;childLayout=stackLayout;horizontal=1;startSize=26;horizontalStack=0;resizeParent=1;resizeParentMax=0;resizeLast=0;collapsible=1;marginBottom=0;whiteSpace=wrap;html=1;" parent="1" vertex="1">
          <mxGeometry x="-1950" y="-1320" width="200" height="112" as="geometry" />
        </mxCell>
        <mxCell id="OFGFD8s86w9iyIirFIPD-139" value="- raceLaps: int" style="text;strokeColor=none;fillColor=none;align=left;verticalAlign=top;spacingLeft=4;spacingRight=4;overflow=hidden;rotatable=0;points=[[0,0.5],[1,0.5]];portConstraint=eastwest;whiteSpace=wrap;html=1;" parent="OFGFD8s86w9iyIirFIPD-138" vertex="1">
          <mxGeometry y="26" width="200" height="26" as="geometry" />
        </mxCell>
        <mxCell id="CuVekwpNMo5QbRq_H-KT-63" value="- lapsCompleted: int" style="text;strokeColor=none;fillColor=none;align=left;verticalAlign=top;spacingLeft=4;spacingRight=4;overflow=hidden;rotatable=0;points=[[0,0.5],[1,0.5]];portConstraint=eastwest;whiteSpace=wrap;html=1;" parent="OFGFD8s86w9iyIirFIPD-138" vertex="1">
          <mxGeometry y="52" width="200" height="26" as="geometry" />
        </mxCell>
        <mxCell id="OFGFD8s86w9iyIirFIPD-140" value="" style="line;strokeWidth=1;fillColor=none;align=left;verticalAlign=middle;spacingTop=-1;spacingLeft=3;spacingRight=3;rotatable=0;labelPosition=right;points=[];portConstraint=eastwest;strokeColor=inherit;" parent="OFGFD8s86w9iyIirFIPD-138" vertex="1">
          <mxGeometry y="78" width="200" height="8" as="geometry" />
        </mxCell>
        <mxCell id="OFGFD8s86w9iyIirFIPD-141" value="+ LapCompletion(): bool" style="text;strokeColor=none;fillColor=none;align=left;verticalAlign=top;spacingLeft=4;spacingRight=4;overflow=hidden;rotatable=0;points=[[0,0.5],[1,0.5]];portConstraint=eastwest;whiteSpace=wrap;html=1;" parent="OFGFD8s86w9iyIirFIPD-138" vertex="1">
          <mxGeometry y="86" width="200" height="26" as="geometry" />
        </mxCell>
        <mxCell id="CuVekwpNMo5QbRq_H-KT-30" value="SceneManager" style="swimlane;fontStyle=1;align=center;verticalAlign=top;childLayout=stackLayout;horizontal=1;startSize=26;horizontalStack=0;resizeParent=1;resizeParentMax=0;resizeLast=0;collapsible=1;marginBottom=0;whiteSpace=wrap;html=1;" parent="1" vertex="1">
          <mxGeometry x="135" y="-1648" width="296" height="198" as="geometry" />
        </mxCell>
        <mxCell id="CuVekwpNMo5QbRq_H-KT-31" value="- finalPosition: int" style="text;strokeColor=none;fillColor=none;align=left;verticalAlign=top;spacingLeft=4;spacingRight=4;overflow=hidden;rotatable=0;points=[[0,0.5],[1,0.5]];portConstraint=eastwest;whiteSpace=wrap;html=1;" parent="CuVekwpNMo5QbRq_H-KT-30" vertex="1">
          <mxGeometry y="26" width="296" height="24" as="geometry" />
        </mxCell>
        <mxCell id="CuVekwpNMo5QbRq_H-KT-32" value="" style="line;strokeWidth=1;fillColor=none;align=left;verticalAlign=middle;spacingTop=-1;spacingLeft=3;spacingRight=3;rotatable=0;labelPosition=right;points=[];portConstraint=eastwest;strokeColor=inherit;" parent="CuVekwpNMo5QbRq_H-KT-30" vertex="1">
          <mxGeometry y="50" width="296" height="8" as="geometry" />
        </mxCell>
        <mxCell id="cp9rJf0xC1L9SVWynJWX-43" value="+ LoadWinningScene(): void" style="text;strokeColor=none;fillColor=none;align=left;verticalAlign=top;spacingLeft=4;spacingRight=4;overflow=hidden;rotatable=0;points=[[0,0.5],[1,0.5]];portConstraint=eastwest;whiteSpace=wrap;html=1;" parent="CuVekwpNMo5QbRq_H-KT-30" vertex="1">
          <mxGeometry y="58" width="296" height="22" as="geometry" />
        </mxCell>
        <mxCell id="PUqLCQDl67QB3bu-2gwk-27" value="+ LoadLoosingScene(): void" style="text;strokeColor=none;fillColor=none;align=left;verticalAlign=top;spacingLeft=4;spacingRight=4;overflow=hidden;rotatable=0;points=[[0,0.5],[1,0.5]];portConstraint=eastwest;whiteSpace=wrap;html=1;" parent="CuVekwpNMo5QbRq_H-KT-30" vertex="1">
          <mxGeometry y="80" width="296" height="22" as="geometry" />
        </mxCell>
        <mxCell id="PUqLCQDl67QB3bu-2gwk-28" value="+ LoadRaceScene(): void" style="text;strokeColor=none;fillColor=none;align=left;verticalAlign=top;spacingLeft=4;spacingRight=4;overflow=hidden;rotatable=0;points=[[0,0.5],[1,0.5]];portConstraint=eastwest;whiteSpace=wrap;html=1;" parent="CuVekwpNMo5QbRq_H-KT-30" vertex="1">
          <mxGeometry y="102" width="296" height="22" as="geometry" />
        </mxCell>
        <mxCell id="jFVlbaEkTlmOw9In86_X-11" value="+ LoadCharacterSelectionScene(): void" style="text;strokeColor=none;fillColor=none;align=left;verticalAlign=top;spacingLeft=4;spacingRight=4;overflow=hidden;rotatable=0;points=[[0,0.5],[1,0.5]];portConstraint=eastwest;whiteSpace=wrap;html=1;" vertex="1" parent="CuVekwpNMo5QbRq_H-KT-30">
          <mxGeometry y="124" width="296" height="26" as="geometry" />
        </mxCell>
        <mxCell id="jFVlbaEkTlmOw9In86_X-12" value="+ LoadMapSelectionScene(): void" style="text;strokeColor=none;fillColor=none;align=left;verticalAlign=top;spacingLeft=4;spacingRight=4;overflow=hidden;rotatable=0;points=[[0,0.5],[1,0.5]];portConstraint=eastwest;whiteSpace=wrap;html=1;" vertex="1" parent="CuVekwpNMo5QbRq_H-KT-30">
          <mxGeometry y="150" width="296" height="26" as="geometry" />
        </mxCell>
        <mxCell id="PUqLCQDl67QB3bu-2gwk-29" value="+ ImplementAnimation(): void" style="text;strokeColor=none;fillColor=none;align=left;verticalAlign=top;spacingLeft=4;spacingRight=4;overflow=hidden;rotatable=0;points=[[0,0.5],[1,0.5]];portConstraint=eastwest;whiteSpace=wrap;html=1;" parent="CuVekwpNMo5QbRq_H-KT-30" vertex="1">
          <mxGeometry y="176" width="296" height="22" as="geometry" />
        </mxCell>
        <mxCell id="CuVekwpNMo5QbRq_H-KT-36" value="AudioManager" style="swimlane;fontStyle=1;align=center;verticalAlign=top;childLayout=stackLayout;horizontal=1;startSize=26;horizontalStack=0;resizeParent=1;resizeParentMax=0;resizeLast=0;collapsible=1;marginBottom=0;whiteSpace=wrap;html=1;" parent="1" vertex="1">
          <mxGeometry x="-659" y="-1640" width="200" height="202" as="geometry" />
        </mxCell>
        <mxCell id="CuVekwpNMo5QbRq_H-KT-37" value="- backgroundMusic: AudioClip" style="text;strokeColor=none;fillColor=none;align=left;verticalAlign=top;spacingLeft=4;spacingRight=4;overflow=hidden;rotatable=0;points=[[0,0.5],[1,0.5]];portConstraint=eastwest;whiteSpace=wrap;html=1;" parent="CuVekwpNMo5QbRq_H-KT-36" vertex="1">
          <mxGeometry y="26" width="200" height="24" as="geometry" />
        </mxCell>
        <mxCell id="CuVekwpNMo5QbRq_H-KT-46" value="- effects: List&amp;lt;AudioClip&amp;gt;" style="text;strokeColor=none;fillColor=none;align=left;verticalAlign=top;spacingLeft=4;spacingRight=4;overflow=hidden;rotatable=0;points=[[0,0.5],[1,0.5]];portConstraint=eastwest;whiteSpace=wrap;html=1;" parent="CuVekwpNMo5QbRq_H-KT-36" vertex="1">
          <mxGeometry y="50" width="200" height="24" as="geometry" />
        </mxCell>
        <mxCell id="cp9rJf0xC1L9SVWynJWX-29" value="- time: float" style="text;strokeColor=none;fillColor=none;align=left;verticalAlign=top;spacingLeft=4;spacingRight=4;overflow=hidden;rotatable=0;points=[[0,0.5],[1,0.5]];portConstraint=eastwest;whiteSpace=wrap;html=1;" parent="CuVekwpNMo5QbRq_H-KT-36" vertex="1">
          <mxGeometry y="74" width="200" height="24" as="geometry" />
        </mxCell>
        <mxCell id="CuVekwpNMo5QbRq_H-KT-38" value="" style="line;strokeWidth=1;fillColor=none;align=left;verticalAlign=middle;spacingTop=-1;spacingLeft=3;spacingRight=3;rotatable=0;labelPosition=right;points=[];portConstraint=eastwest;strokeColor=inherit;" parent="CuVekwpNMo5QbRq_H-KT-36" vertex="1">
          <mxGeometry y="98" width="200" height="8" as="geometry" />
        </mxCell>
        <mxCell id="CuVekwpNMo5QbRq_H-KT-39" value="+ PlayMusic(): void" style="text;strokeColor=none;fillColor=none;align=left;verticalAlign=top;spacingLeft=4;spacingRight=4;overflow=hidden;rotatable=0;points=[[0,0.5],[1,0.5]];portConstraint=eastwest;whiteSpace=wrap;html=1;" parent="CuVekwpNMo5QbRq_H-KT-36" vertex="1">
          <mxGeometry y="106" width="200" height="22" as="geometry" />
        </mxCell>
        <mxCell id="cp9rJf0xC1L9SVWynJWX-27" value="+ StopMusic(): void" style="text;strokeColor=none;fillColor=none;align=left;verticalAlign=top;spacingLeft=4;spacingRight=4;overflow=hidden;rotatable=0;points=[[0,0.5],[1,0.5]];portConstraint=eastwest;whiteSpace=wrap;html=1;" parent="CuVekwpNMo5QbRq_H-KT-36" vertex="1">
          <mxGeometry y="128" width="200" height="22" as="geometry" />
        </mxCell>
        <mxCell id="CuVekwpNMo5QbRq_H-KT-40" value="+ PlayEffect(): void" style="text;strokeColor=none;fillColor=none;align=left;verticalAlign=top;spacingLeft=4;spacingRight=4;overflow=hidden;rotatable=0;points=[[0,0.5],[1,0.5]];portConstraint=eastwest;whiteSpace=wrap;html=1;" parent="CuVekwpNMo5QbRq_H-KT-36" vertex="1">
          <mxGeometry y="150" width="200" height="26" as="geometry" />
        </mxCell>
        <mxCell id="cp9rJf0xC1L9SVWynJWX-28" value="+ StopEffect(): void" style="text;strokeColor=none;fillColor=none;align=left;verticalAlign=top;spacingLeft=4;spacingRight=4;overflow=hidden;rotatable=0;points=[[0,0.5],[1,0.5]];portConstraint=eastwest;whiteSpace=wrap;html=1;" parent="CuVekwpNMo5QbRq_H-KT-36" vertex="1">
          <mxGeometry y="176" width="200" height="26" as="geometry" />
        </mxCell>
        <mxCell id="CuVekwpNMo5QbRq_H-KT-50" value="LapCounter" style="swimlane;fontStyle=1;align=center;verticalAlign=top;childLayout=stackLayout;horizontal=1;startSize=26;horizontalStack=0;resizeParent=1;resizeParentMax=0;resizeLast=0;collapsible=1;marginBottom=0;whiteSpace=wrap;html=1;" parent="1" vertex="1">
          <mxGeometry x="-1680" y="-1320" width="200" height="112" as="geometry" />
        </mxCell>
        <mxCell id="CuVekwpNMo5QbRq_H-KT-51" value="- currentLap: int" style="text;strokeColor=none;fillColor=none;align=left;verticalAlign=top;spacingLeft=4;spacingRight=4;overflow=hidden;rotatable=0;points=[[0,0.5],[1,0.5]];portConstraint=eastwest;whiteSpace=wrap;html=1;" parent="CuVekwpNMo5QbRq_H-KT-50" vertex="1">
          <mxGeometry y="26" width="200" height="26" as="geometry" />
        </mxCell>
        <mxCell id="CuVekwpNMo5QbRq_H-KT-56" value="- TotalLaps: int" style="text;strokeColor=none;fillColor=none;align=left;verticalAlign=top;spacingLeft=4;spacingRight=4;overflow=hidden;rotatable=0;points=[[0,0.5],[1,0.5]];portConstraint=eastwest;whiteSpace=wrap;html=1;" parent="CuVekwpNMo5QbRq_H-KT-50" vertex="1">
          <mxGeometry y="52" width="200" height="26" as="geometry" />
        </mxCell>
        <mxCell id="CuVekwpNMo5QbRq_H-KT-52" value="" style="line;strokeWidth=1;fillColor=none;align=left;verticalAlign=middle;spacingTop=-1;spacingLeft=3;spacingRight=3;rotatable=0;labelPosition=right;points=[];portConstraint=eastwest;strokeColor=inherit;" parent="CuVekwpNMo5QbRq_H-KT-50" vertex="1">
          <mxGeometry y="78" width="200" height="8" as="geometry" />
        </mxCell>
        <mxCell id="CuVekwpNMo5QbRq_H-KT-53" value="+ UpdateLap(): void" style="text;strokeColor=none;fillColor=none;align=left;verticalAlign=top;spacingLeft=4;spacingRight=4;overflow=hidden;rotatable=0;points=[[0,0.5],[1,0.5]];portConstraint=eastwest;whiteSpace=wrap;html=1;" parent="CuVekwpNMo5QbRq_H-KT-50" vertex="1">
          <mxGeometry y="86" width="200" height="26" as="geometry" />
        </mxCell>
        <mxCell id="CuVekwpNMo5QbRq_H-KT-64" value="MainMenu" style="swimlane;fontStyle=1;align=center;verticalAlign=top;childLayout=stackLayout;horizontal=1;startSize=26;horizontalStack=0;resizeParent=1;resizeParentMax=0;resizeLast=0;collapsible=1;marginBottom=0;whiteSpace=wrap;html=1;" parent="1" vertex="1">
          <mxGeometry x="-1445" y="-1320" width="200" height="86" as="geometry" />
        </mxCell>
        <mxCell id="CuVekwpNMo5QbRq_H-KT-65" value="&amp;nbsp;" style="text;strokeColor=none;fillColor=none;align=left;verticalAlign=top;spacingLeft=4;spacingRight=4;overflow=hidden;rotatable=0;points=[[0,0.5],[1,0.5]];portConstraint=eastwest;whiteSpace=wrap;html=1;" parent="CuVekwpNMo5QbRq_H-KT-64" vertex="1">
          <mxGeometry y="26" width="200" height="26" as="geometry" />
        </mxCell>
        <mxCell id="CuVekwpNMo5QbRq_H-KT-67" value="" style="line;strokeWidth=1;fillColor=none;align=left;verticalAlign=middle;spacingTop=-1;spacingLeft=3;spacingRight=3;rotatable=0;labelPosition=right;points=[];portConstraint=eastwest;strokeColor=inherit;" parent="CuVekwpNMo5QbRq_H-KT-64" vertex="1">
          <mxGeometry y="52" width="200" height="8" as="geometry" />
        </mxCell>
        <mxCell id="CuVekwpNMo5QbRq_H-KT-68" value="+ DisplayMainMenu(): void" style="text;strokeColor=none;fillColor=none;align=left;verticalAlign=top;spacingLeft=4;spacingRight=4;overflow=hidden;rotatable=0;points=[[0,0.5],[1,0.5]];portConstraint=eastwest;whiteSpace=wrap;html=1;" parent="CuVekwpNMo5QbRq_H-KT-64" vertex="1">
          <mxGeometry y="60" width="200" height="26" as="geometry" />
        </mxCell>
        <mxCell id="CuVekwpNMo5QbRq_H-KT-70" value="RaceScene" style="swimlane;fontStyle=1;align=center;verticalAlign=top;childLayout=stackLayout;horizontal=1;startSize=26;horizontalStack=0;resizeParent=1;resizeParentMax=0;resizeLast=0;collapsible=1;marginBottom=0;whiteSpace=wrap;html=1;" parent="1" vertex="1">
          <mxGeometry x="183" y="-1320" width="200" height="86" as="geometry" />
        </mxCell>
        <mxCell id="CuVekwpNMo5QbRq_H-KT-71" value="&amp;nbsp;" style="text;strokeColor=none;fillColor=none;align=left;verticalAlign=top;spacingLeft=4;spacingRight=4;overflow=hidden;rotatable=0;points=[[0,0.5],[1,0.5]];portConstraint=eastwest;whiteSpace=wrap;html=1;" parent="CuVekwpNMo5QbRq_H-KT-70" vertex="1">
          <mxGeometry y="26" width="200" height="26" as="geometry" />
        </mxCell>
        <mxCell id="CuVekwpNMo5QbRq_H-KT-72" value="" style="line;strokeWidth=1;fillColor=none;align=left;verticalAlign=middle;spacingTop=-1;spacingLeft=3;spacingRight=3;rotatable=0;labelPosition=right;points=[];portConstraint=eastwest;strokeColor=inherit;" parent="CuVekwpNMo5QbRq_H-KT-70" vertex="1">
          <mxGeometry y="52" width="200" height="8" as="geometry" />
        </mxCell>
        <mxCell id="CuVekwpNMo5QbRq_H-KT-73" value="+ LoadRaceScene(): void" style="text;strokeColor=none;fillColor=none;align=left;verticalAlign=top;spacingLeft=4;spacingRight=4;overflow=hidden;rotatable=0;points=[[0,0.5],[1,0.5]];portConstraint=eastwest;whiteSpace=wrap;html=1;" parent="CuVekwpNMo5QbRq_H-KT-70" vertex="1">
          <mxGeometry y="60" width="200" height="26" as="geometry" />
        </mxCell>
        <mxCell id="CuVekwpNMo5QbRq_H-KT-87" value="CharacterSelectionScene" style="swimlane;fontStyle=1;align=center;verticalAlign=top;childLayout=stackLayout;horizontal=1;startSize=26;horizontalStack=0;resizeParent=1;resizeParentMax=0;resizeLast=0;collapsible=1;marginBottom=0;whiteSpace=wrap;html=1;" parent="1" vertex="1">
          <mxGeometry x="-440" y="-970.0000000000001" width="270" height="130" as="geometry" />
        </mxCell>
        <mxCell id="CuVekwpNMo5QbRq_H-KT-92" value="+ BackToMainMenu: Button" style="text;strokeColor=none;fillColor=none;align=left;verticalAlign=top;spacingLeft=4;spacingRight=4;overflow=hidden;rotatable=0;points=[[0,0.5],[1,0.5]];portConstraint=eastwest;whiteSpace=wrap;html=1;" parent="CuVekwpNMo5QbRq_H-KT-87" vertex="1">
          <mxGeometry y="26" width="270" height="26" as="geometry" />
        </mxCell>
        <mxCell id="CuVekwpNMo5QbRq_H-KT-88" value="- availableCharacters: List&amp;lt;Character&amp;gt;" style="text;strokeColor=none;fillColor=none;align=left;verticalAlign=top;spacingLeft=4;spacingRight=4;overflow=hidden;rotatable=0;points=[[0,0.5],[1,0.5]];portConstraint=eastwest;whiteSpace=wrap;html=1;" parent="CuVekwpNMo5QbRq_H-KT-87" vertex="1">
          <mxGeometry y="52" width="270" height="24" as="geometry" />
        </mxCell>
        <mxCell id="CuVekwpNMo5QbRq_H-KT-89" value="+ selectedCharacter: Character" style="text;strokeColor=none;fillColor=none;align=left;verticalAlign=top;spacingLeft=4;spacingRight=4;overflow=hidden;rotatable=0;points=[[0,0.5],[1,0.5]];portConstraint=eastwest;whiteSpace=wrap;html=1;" parent="CuVekwpNMo5QbRq_H-KT-87" vertex="1">
          <mxGeometry y="76" width="270" height="24" as="geometry" />
        </mxCell>
        <mxCell id="CuVekwpNMo5QbRq_H-KT-90" value="" style="line;strokeWidth=1;fillColor=none;align=left;verticalAlign=middle;spacingTop=-1;spacingLeft=3;spacingRight=3;rotatable=0;labelPosition=right;points=[];portConstraint=eastwest;strokeColor=inherit;" parent="CuVekwpNMo5QbRq_H-KT-87" vertex="1">
          <mxGeometry y="100" width="270" height="8" as="geometry" />
        </mxCell>
        <mxCell id="CuVekwpNMo5QbRq_H-KT-91" value="+ LoadCharacterSelectionScene(): void" style="text;strokeColor=none;fillColor=none;align=left;verticalAlign=top;spacingLeft=4;spacingRight=4;overflow=hidden;rotatable=0;points=[[0,0.5],[1,0.5]];portConstraint=eastwest;whiteSpace=wrap;html=1;" parent="CuVekwpNMo5QbRq_H-KT-87" vertex="1">
          <mxGeometry y="108" width="270" height="22" as="geometry" />
        </mxCell>
        <mxCell id="CuVekwpNMo5QbRq_H-KT-95" value="VehicleSelectionScene" style="swimlane;fontStyle=1;align=center;verticalAlign=top;childLayout=stackLayout;horizontal=1;startSize=26;horizontalStack=0;resizeParent=1;resizeParentMax=0;resizeLast=0;collapsible=1;marginBottom=0;whiteSpace=wrap;html=1;" parent="1" vertex="1">
          <mxGeometry x="-140" y="-970.0000000000001" width="240" height="130" as="geometry" />
        </mxCell>
        <mxCell id="CuVekwpNMo5QbRq_H-KT-101" value="+ BackToMainMenu: Button" style="text;strokeColor=none;fillColor=none;align=left;verticalAlign=top;spacingLeft=4;spacingRight=4;overflow=hidden;rotatable=0;points=[[0,0.5],[1,0.5]];portConstraint=eastwest;whiteSpace=wrap;html=1;" parent="CuVekwpNMo5QbRq_H-KT-95" vertex="1">
          <mxGeometry y="26" width="240" height="26" as="geometry" />
        </mxCell>
        <mxCell id="CuVekwpNMo5QbRq_H-KT-96" value="- availableVehicles: List&amp;lt;Vehicle&amp;gt;" style="text;strokeColor=none;fillColor=none;align=left;verticalAlign=top;spacingLeft=4;spacingRight=4;overflow=hidden;rotatable=0;points=[[0,0.5],[1,0.5]];portConstraint=eastwest;whiteSpace=wrap;html=1;" parent="CuVekwpNMo5QbRq_H-KT-95" vertex="1">
          <mxGeometry y="52" width="240" height="24" as="geometry" />
        </mxCell>
        <mxCell id="CuVekwpNMo5QbRq_H-KT-97" value="+ selectedVehicle: Vehicle " style="text;strokeColor=none;fillColor=none;align=left;verticalAlign=top;spacingLeft=4;spacingRight=4;overflow=hidden;rotatable=0;points=[[0,0.5],[1,0.5]];portConstraint=eastwest;whiteSpace=wrap;html=1;" parent="CuVekwpNMo5QbRq_H-KT-95" vertex="1">
          <mxGeometry y="76" width="240" height="24" as="geometry" />
        </mxCell>
        <mxCell id="CuVekwpNMo5QbRq_H-KT-98" value="" style="line;strokeWidth=1;fillColor=none;align=left;verticalAlign=middle;spacingTop=-1;spacingLeft=3;spacingRight=3;rotatable=0;labelPosition=right;points=[];portConstraint=eastwest;strokeColor=inherit;" parent="CuVekwpNMo5QbRq_H-KT-95" vertex="1">
          <mxGeometry y="100" width="240" height="8" as="geometry" />
        </mxCell>
        <mxCell id="CuVekwpNMo5QbRq_H-KT-99" value="+ LoadVehicleSelectionScene(): void" style="text;strokeColor=none;fillColor=none;align=left;verticalAlign=top;spacingLeft=4;spacingRight=4;overflow=hidden;rotatable=0;points=[[0,0.5],[1,0.5]];portConstraint=eastwest;whiteSpace=wrap;html=1;" parent="CuVekwpNMo5QbRq_H-KT-95" vertex="1">
          <mxGeometry y="108" width="240" height="22" as="geometry" />
        </mxCell>
        <mxCell id="CuVekwpNMo5QbRq_H-KT-102" value="MapSelectionScene" style="swimlane;fontStyle=1;align=center;verticalAlign=top;childLayout=stackLayout;horizontal=1;startSize=26;horizontalStack=0;resizeParent=1;resizeParentMax=0;resizeLast=0;collapsible=1;marginBottom=0;whiteSpace=wrap;html=1;" parent="1" vertex="1">
          <mxGeometry x="191" y="-970.0000000000001" width="240" height="130" as="geometry" />
        </mxCell>
        <mxCell id="CuVekwpNMo5QbRq_H-KT-108" value="+ BackToMainMenu: Button" style="text;strokeColor=none;fillColor=none;align=left;verticalAlign=top;spacingLeft=4;spacingRight=4;overflow=hidden;rotatable=0;points=[[0,0.5],[1,0.5]];portConstraint=eastwest;whiteSpace=wrap;html=1;" parent="CuVekwpNMo5QbRq_H-KT-102" vertex="1">
          <mxGeometry y="26" width="240" height="26" as="geometry" />
        </mxCell>
        <mxCell id="CuVekwpNMo5QbRq_H-KT-103" value="- availableMaps: List&amp;lt;Map&amp;gt;" style="text;strokeColor=none;fillColor=none;align=left;verticalAlign=top;spacingLeft=4;spacingRight=4;overflow=hidden;rotatable=0;points=[[0,0.5],[1,0.5]];portConstraint=eastwest;whiteSpace=wrap;html=1;" parent="CuVekwpNMo5QbRq_H-KT-102" vertex="1">
          <mxGeometry y="52" width="240" height="24" as="geometry" />
        </mxCell>
        <mxCell id="CuVekwpNMo5QbRq_H-KT-104" value="+ selectedMap: Map " style="text;strokeColor=none;fillColor=none;align=left;verticalAlign=top;spacingLeft=4;spacingRight=4;overflow=hidden;rotatable=0;points=[[0,0.5],[1,0.5]];portConstraint=eastwest;whiteSpace=wrap;html=1;" parent="CuVekwpNMo5QbRq_H-KT-102" vertex="1">
          <mxGeometry y="76" width="240" height="24" as="geometry" />
        </mxCell>
        <mxCell id="CuVekwpNMo5QbRq_H-KT-105" value="" style="line;strokeWidth=1;fillColor=none;align=left;verticalAlign=middle;spacingTop=-1;spacingLeft=3;spacingRight=3;rotatable=0;labelPosition=right;points=[];portConstraint=eastwest;strokeColor=inherit;" parent="CuVekwpNMo5QbRq_H-KT-102" vertex="1">
          <mxGeometry y="100" width="240" height="8" as="geometry" />
        </mxCell>
        <mxCell id="CuVekwpNMo5QbRq_H-KT-106" value="+ LoadMapSelectionScene(): void" style="text;strokeColor=none;fillColor=none;align=left;verticalAlign=top;spacingLeft=4;spacingRight=4;overflow=hidden;rotatable=0;points=[[0,0.5],[1,0.5]];portConstraint=eastwest;whiteSpace=wrap;html=1;" parent="CuVekwpNMo5QbRq_H-KT-102" vertex="1">
          <mxGeometry y="108" width="240" height="22" as="geometry" />
        </mxCell>
        <mxCell id="CuVekwpNMo5QbRq_H-KT-109" value="ObstacleFactory" style="swimlane;fontStyle=1;align=center;verticalAlign=top;childLayout=stackLayout;horizontal=1;startSize=26;horizontalStack=0;resizeParent=1;resizeParentMax=0;resizeLast=0;collapsible=1;marginBottom=0;whiteSpace=wrap;html=1;" parent="1" vertex="1">
          <mxGeometry x="581" y="-410" width="420" height="164" as="geometry" />
        </mxCell>
        <mxCell id="CuVekwpNMo5QbRq_H-KT-110" value="&amp;nbsp;" style="text;strokeColor=none;fillColor=none;align=left;verticalAlign=top;spacingLeft=4;spacingRight=4;overflow=hidden;rotatable=0;points=[[0,0.5],[1,0.5]];portConstraint=eastwest;whiteSpace=wrap;html=1;" parent="CuVekwpNMo5QbRq_H-KT-109" vertex="1">
          <mxGeometry y="26" width="420" height="26" as="geometry" />
        </mxCell>
        <mxCell id="CuVekwpNMo5QbRq_H-KT-112" value="" style="line;strokeWidth=1;fillColor=none;align=left;verticalAlign=middle;spacingTop=-1;spacingLeft=3;spacingRight=3;rotatable=0;labelPosition=right;points=[];portConstraint=eastwest;strokeColor=inherit;" parent="CuVekwpNMo5QbRq_H-KT-109" vertex="1">
          <mxGeometry y="52" width="420" height="8" as="geometry" />
        </mxCell>
        <mxCell id="CuVekwpNMo5QbRq_H-KT-113" value="+ CreateObstacle(type: string): Obstacle" style="text;strokeColor=none;fillColor=none;align=left;verticalAlign=top;spacingLeft=4;spacingRight=4;overflow=hidden;rotatable=0;points=[[0,0.5],[1,0.5]];portConstraint=eastwest;whiteSpace=wrap;html=1;" parent="CuVekwpNMo5QbRq_H-KT-109" vertex="1">
          <mxGeometry y="60" width="420" height="26" as="geometry" />
        </mxCell>
        <mxCell id="CuVekwpNMo5QbRq_H-KT-114" value="+ CreateBoostObstacle(boostAmount: float, duration: float): ObstacleBoost" style="text;strokeColor=none;fillColor=none;align=left;verticalAlign=top;spacingLeft=4;spacingRight=4;overflow=hidden;rotatable=0;points=[[0,0.5],[1,0.5]];portConstraint=eastwest;whiteSpace=wrap;html=1;" parent="CuVekwpNMo5QbRq_H-KT-109" vertex="1">
          <mxGeometry y="86" width="420" height="26" as="geometry" />
        </mxCell>
        <mxCell id="CuVekwpNMo5QbRq_H-KT-115" value="+ CreateSceneObstacle(): ObstacleScene " style="text;strokeColor=none;fillColor=none;align=left;verticalAlign=top;spacingLeft=4;spacingRight=4;overflow=hidden;rotatable=0;points=[[0,0.5],[1,0.5]];portConstraint=eastwest;whiteSpace=wrap;html=1;" parent="CuVekwpNMo5QbRq_H-KT-109" vertex="1">
          <mxGeometry y="112" width="420" height="26" as="geometry" />
        </mxCell>
        <mxCell id="CuVekwpNMo5QbRq_H-KT-116" value="+ CreateAttackObstacle(): ObstacleAttack" style="text;strokeColor=none;fillColor=none;align=left;verticalAlign=top;spacingLeft=4;spacingRight=4;overflow=hidden;rotatable=0;points=[[0,0.5],[1,0.5]];portConstraint=eastwest;whiteSpace=wrap;html=1;" parent="CuVekwpNMo5QbRq_H-KT-109" vertex="1">
          <mxGeometry y="138" width="420" height="26" as="geometry" />
        </mxCell>
        <mxCell id="6a2vFf1LVteAFRwm6jyj-12" value="ObstacleAttackFactory" style="swimlane;fontStyle=1;align=center;verticalAlign=top;childLayout=stackLayout;horizontal=1;startSize=26;horizontalStack=0;resizeParent=1;resizeParentMax=0;resizeLast=0;collapsible=1;marginBottom=0;whiteSpace=wrap;html=1;" parent="1" vertex="1">
          <mxGeometry x="1105.5" y="-130" width="420" height="164" as="geometry" />
        </mxCell>
        <mxCell id="6a2vFf1LVteAFRwm6jyj-13" value="&amp;nbsp;" style="text;strokeColor=none;fillColor=none;align=left;verticalAlign=top;spacingLeft=4;spacingRight=4;overflow=hidden;rotatable=0;points=[[0,0.5],[1,0.5]];portConstraint=eastwest;whiteSpace=wrap;html=1;" parent="6a2vFf1LVteAFRwm6jyj-12" vertex="1">
          <mxGeometry y="26" width="420" height="26" as="geometry" />
        </mxCell>
        <mxCell id="6a2vFf1LVteAFRwm6jyj-14" value="" style="line;strokeWidth=1;fillColor=none;align=left;verticalAlign=middle;spacingTop=-1;spacingLeft=3;spacingRight=3;rotatable=0;labelPosition=right;points=[];portConstraint=eastwest;strokeColor=inherit;" parent="6a2vFf1LVteAFRwm6jyj-12" vertex="1">
          <mxGeometry y="52" width="420" height="8" as="geometry" />
        </mxCell>
        <mxCell id="6a2vFf1LVteAFRwm6jyj-15" value="+ CreateObstacle(type: string): Obstacle" style="text;strokeColor=none;fillColor=none;align=left;verticalAlign=top;spacingLeft=4;spacingRight=4;overflow=hidden;rotatable=0;points=[[0,0.5],[1,0.5]];portConstraint=eastwest;whiteSpace=wrap;html=1;" parent="6a2vFf1LVteAFRwm6jyj-12" vertex="1">
          <mxGeometry y="60" width="420" height="26" as="geometry" />
        </mxCell>
        <mxCell id="6a2vFf1LVteAFRwm6jyj-16" value="+ CreateBoostObstacle(boostAmount: float, duration: float): ObstacleBoost" style="text;strokeColor=none;fillColor=none;align=left;verticalAlign=top;spacingLeft=4;spacingRight=4;overflow=hidden;rotatable=0;points=[[0,0.5],[1,0.5]];portConstraint=eastwest;whiteSpace=wrap;html=1;" parent="6a2vFf1LVteAFRwm6jyj-12" vertex="1">
          <mxGeometry y="86" width="420" height="26" as="geometry" />
        </mxCell>
        <mxCell id="6a2vFf1LVteAFRwm6jyj-17" value="+ CreateSceneObstacle(): ObstacleScene " style="text;strokeColor=none;fillColor=none;align=left;verticalAlign=top;spacingLeft=4;spacingRight=4;overflow=hidden;rotatable=0;points=[[0,0.5],[1,0.5]];portConstraint=eastwest;whiteSpace=wrap;html=1;" parent="6a2vFf1LVteAFRwm6jyj-12" vertex="1">
          <mxGeometry y="112" width="420" height="26" as="geometry" />
        </mxCell>
        <mxCell id="6a2vFf1LVteAFRwm6jyj-18" value="+ CreateAttackObstacle(): ObstacleAttack" style="text;strokeColor=none;fillColor=none;align=left;verticalAlign=top;spacingLeft=4;spacingRight=4;overflow=hidden;rotatable=0;points=[[0,0.5],[1,0.5]];portConstraint=eastwest;whiteSpace=wrap;html=1;" parent="6a2vFf1LVteAFRwm6jyj-12" vertex="1">
          <mxGeometry y="138" width="420" height="26" as="geometry" />
        </mxCell>
        <mxCell id="6a2vFf1LVteAFRwm6jyj-19" value="ObstacleSceneFactory" style="swimlane;fontStyle=1;align=center;verticalAlign=top;childLayout=stackLayout;horizontal=1;startSize=26;horizontalStack=0;resizeParent=1;resizeParentMax=0;resizeLast=0;collapsible=1;marginBottom=0;whiteSpace=wrap;html=1;" parent="1" vertex="1">
          <mxGeometry x="600" y="-128" width="420" height="164" as="geometry" />
        </mxCell>
        <mxCell id="6a2vFf1LVteAFRwm6jyj-20" value="&amp;nbsp;" style="text;strokeColor=none;fillColor=none;align=left;verticalAlign=top;spacingLeft=4;spacingRight=4;overflow=hidden;rotatable=0;points=[[0,0.5],[1,0.5]];portConstraint=eastwest;whiteSpace=wrap;html=1;" parent="6a2vFf1LVteAFRwm6jyj-19" vertex="1">
          <mxGeometry y="26" width="420" height="26" as="geometry" />
        </mxCell>
        <mxCell id="6a2vFf1LVteAFRwm6jyj-21" value="" style="line;strokeWidth=1;fillColor=none;align=left;verticalAlign=middle;spacingTop=-1;spacingLeft=3;spacingRight=3;rotatable=0;labelPosition=right;points=[];portConstraint=eastwest;strokeColor=inherit;" parent="6a2vFf1LVteAFRwm6jyj-19" vertex="1">
          <mxGeometry y="52" width="420" height="8" as="geometry" />
        </mxCell>
        <mxCell id="6a2vFf1LVteAFRwm6jyj-22" value="+ CreateObstacle(type: string): Obstacle" style="text;strokeColor=none;fillColor=none;align=left;verticalAlign=top;spacingLeft=4;spacingRight=4;overflow=hidden;rotatable=0;points=[[0,0.5],[1,0.5]];portConstraint=eastwest;whiteSpace=wrap;html=1;" parent="6a2vFf1LVteAFRwm6jyj-19" vertex="1">
          <mxGeometry y="60" width="420" height="26" as="geometry" />
        </mxCell>
        <mxCell id="6a2vFf1LVteAFRwm6jyj-23" value="+ CreateBoostObstacle(boostAmount: float, duration: float): ObstacleBoost" style="text;strokeColor=none;fillColor=none;align=left;verticalAlign=top;spacingLeft=4;spacingRight=4;overflow=hidden;rotatable=0;points=[[0,0.5],[1,0.5]];portConstraint=eastwest;whiteSpace=wrap;html=1;" parent="6a2vFf1LVteAFRwm6jyj-19" vertex="1">
          <mxGeometry y="86" width="420" height="26" as="geometry" />
        </mxCell>
        <mxCell id="6a2vFf1LVteAFRwm6jyj-24" value="+ CreateSceneObstacle(): ObstacleScene " style="text;strokeColor=none;fillColor=none;align=left;verticalAlign=top;spacingLeft=4;spacingRight=4;overflow=hidden;rotatable=0;points=[[0,0.5],[1,0.5]];portConstraint=eastwest;whiteSpace=wrap;html=1;" parent="6a2vFf1LVteAFRwm6jyj-19" vertex="1">
          <mxGeometry y="112" width="420" height="26" as="geometry" />
        </mxCell>
        <mxCell id="6a2vFf1LVteAFRwm6jyj-25" value="+ CreateAttackObstacle(): ObstacleAttack" style="text;strokeColor=none;fillColor=none;align=left;verticalAlign=top;spacingLeft=4;spacingRight=4;overflow=hidden;rotatable=0;points=[[0,0.5],[1,0.5]];portConstraint=eastwest;whiteSpace=wrap;html=1;" parent="6a2vFf1LVteAFRwm6jyj-19" vertex="1">
          <mxGeometry y="138" width="420" height="26" as="geometry" />
        </mxCell>
        <mxCell id="6a2vFf1LVteAFRwm6jyj-26" value="ObstacleBoostFactory" style="swimlane;fontStyle=1;align=center;verticalAlign=top;childLayout=stackLayout;horizontal=1;startSize=26;horizontalStack=0;resizeParent=1;resizeParentMax=0;resizeLast=0;collapsible=1;marginBottom=0;whiteSpace=wrap;html=1;" parent="1" vertex="1">
          <mxGeometry x="120" y="-130" width="420" height="166" as="geometry" />
        </mxCell>
        <mxCell id="6a2vFf1LVteAFRwm6jyj-27" value="&amp;nbsp;" style="text;strokeColor=none;fillColor=none;align=left;verticalAlign=top;spacingLeft=4;spacingRight=4;overflow=hidden;rotatable=0;points=[[0,0.5],[1,0.5]];portConstraint=eastwest;whiteSpace=wrap;html=1;" parent="6a2vFf1LVteAFRwm6jyj-26" vertex="1">
          <mxGeometry y="26" width="420" height="26" as="geometry" />
        </mxCell>
        <mxCell id="6a2vFf1LVteAFRwm6jyj-28" value="" style="line;strokeWidth=1;fillColor=none;align=left;verticalAlign=middle;spacingTop=-1;spacingLeft=3;spacingRight=3;rotatable=0;labelPosition=right;points=[];portConstraint=eastwest;strokeColor=inherit;" parent="6a2vFf1LVteAFRwm6jyj-26" vertex="1">
          <mxGeometry y="52" width="420" height="8" as="geometry" />
        </mxCell>
        <mxCell id="6a2vFf1LVteAFRwm6jyj-29" value="+ CreateObstacle(type: string): Obstacle" style="text;strokeColor=none;fillColor=none;align=left;verticalAlign=top;spacingLeft=4;spacingRight=4;overflow=hidden;rotatable=0;points=[[0,0.5],[1,0.5]];portConstraint=eastwest;whiteSpace=wrap;html=1;" parent="6a2vFf1LVteAFRwm6jyj-26" vertex="1">
          <mxGeometry y="60" width="420" height="26" as="geometry" />
        </mxCell>
        <mxCell id="6a2vFf1LVteAFRwm6jyj-30" value="+ CreateBoostObstacle(boostAmount: float, duration: float): ObstacleBoost" style="text;strokeColor=none;fillColor=none;align=left;verticalAlign=top;spacingLeft=4;spacingRight=4;overflow=hidden;rotatable=0;points=[[0,0.5],[1,0.5]];portConstraint=eastwest;whiteSpace=wrap;html=1;" parent="6a2vFf1LVteAFRwm6jyj-26" vertex="1">
          <mxGeometry y="86" width="420" height="26" as="geometry" />
        </mxCell>
        <mxCell id="6a2vFf1LVteAFRwm6jyj-31" value="+ CreateSceneObstacle(): ObstacleScene " style="text;strokeColor=none;fillColor=none;align=left;verticalAlign=top;spacingLeft=4;spacingRight=4;overflow=hidden;rotatable=0;points=[[0,0.5],[1,0.5]];portConstraint=eastwest;whiteSpace=wrap;html=1;" parent="6a2vFf1LVteAFRwm6jyj-26" vertex="1">
          <mxGeometry y="112" width="420" height="28" as="geometry" />
        </mxCell>
        <mxCell id="6a2vFf1LVteAFRwm6jyj-32" value="+ CreateAttackObstacle(): ObstacleAttack" style="text;strokeColor=none;fillColor=none;align=left;verticalAlign=top;spacingLeft=4;spacingRight=4;overflow=hidden;rotatable=0;points=[[0,0.5],[1,0.5]];portConstraint=eastwest;whiteSpace=wrap;html=1;" parent="6a2vFf1LVteAFRwm6jyj-26" vertex="1">
          <mxGeometry y="140" width="420" height="26" as="geometry" />
        </mxCell>
        <mxCell id="6a2vFf1LVteAFRwm6jyj-36" value="" style="endArrow=block;endSize=16;endFill=0;html=1;rounded=0;exitX=0.5;exitY=0;exitDx=0;exitDy=0;entryX=0.5;entryY=1;entryDx=0;entryDy=0;" parent="1" source="OFGFD8s86w9iyIirFIPD-107" target="OFGFD8s86w9iyIirFIPD-36" edge="1">
          <mxGeometry width="160" relative="1" as="geometry">
            <mxPoint x="-1030" y="110" as="sourcePoint" />
            <mxPoint x="-870" y="110" as="targetPoint" />
          </mxGeometry>
        </mxCell>
        <mxCell id="6a2vFf1LVteAFRwm6jyj-37" value="" style="endArrow=block;endSize=16;endFill=0;html=1;rounded=0;exitX=0.5;exitY=0;exitDx=0;exitDy=0;entryX=0.544;entryY=1.138;entryDx=0;entryDy=0;entryPerimeter=0;" parent="1" source="OFGFD8s86w9iyIirFIPD-112" target="OFGFD8s86w9iyIirFIPD-98" edge="1">
          <mxGeometry width="160" relative="1" as="geometry">
            <mxPoint x="-1089" y="90" as="sourcePoint" />
            <mxPoint x="-880" y="-30" as="targetPoint" />
            <Array as="points">
              <mxPoint x="-830" y="10" />
              <mxPoint x="-590" y="10" />
            </Array>
          </mxGeometry>
        </mxCell>
        <mxCell id="6a2vFf1LVteAFRwm6jyj-38" value="" style="endArrow=block;endSize=16;endFill=0;html=1;rounded=0;exitX=0.546;exitY=0;exitDx=0;exitDy=0;entryX=0.541;entryY=0.966;entryDx=0;entryDy=0;entryPerimeter=0;exitPerimeter=0;" parent="1" source="OFGFD8s86w9iyIirFIPD-122" target="OFGFD8s86w9iyIirFIPD-98" edge="1">
          <mxGeometry width="160" relative="1" as="geometry">
            <mxPoint x="-1079" y="100" as="sourcePoint" />
            <mxPoint x="-1079" y="26" as="targetPoint" />
          </mxGeometry>
        </mxCell>
        <mxCell id="6a2vFf1LVteAFRwm6jyj-40" value="" style="endArrow=block;endSize=16;endFill=0;html=1;rounded=0;exitX=0.5;exitY=0;exitDx=0;exitDy=0;entryX=0.537;entryY=1.002;entryDx=0;entryDy=0;entryPerimeter=0;" parent="1" source="OFGFD8s86w9iyIirFIPD-117" target="OFGFD8s86w9iyIirFIPD-98" edge="1">
          <mxGeometry width="160" relative="1" as="geometry">
            <mxPoint x="-350.34000000000003" y="28" as="sourcePoint" />
            <mxPoint x="-350.34000000000003" y="-46" as="targetPoint" />
            <Array as="points">
              <mxPoint x="-359" y="10" />
              <mxPoint x="-592" y="10" />
            </Array>
          </mxGeometry>
        </mxCell>
        <mxCell id="6a2vFf1LVteAFRwm6jyj-41" value="" style="endArrow=block;endSize=16;endFill=0;html=1;rounded=0;exitX=0.5;exitY=0;exitDx=0;exitDy=0;entryX=0.497;entryY=0.927;entryDx=0;entryDy=0;entryPerimeter=0;" parent="1" source="OFGFD8s86w9iyIirFIPD-129" target="OFGFD8s86w9iyIirFIPD-60" edge="1">
          <mxGeometry width="160" relative="1" as="geometry">
            <mxPoint x="-349" y="90" as="sourcePoint" />
            <mxPoint x="-562" y="-35" as="targetPoint" />
          </mxGeometry>
        </mxCell>
        <mxCell id="6a2vFf1LVteAFRwm6jyj-43" value="" style="endArrow=block;endSize=16;endFill=0;html=1;rounded=0;exitX=0.522;exitY=0.009;exitDx=0;exitDy=0;exitPerimeter=0;entryX=0.519;entryY=1.084;entryDx=0;entryDy=0;entryPerimeter=0;" parent="1" source="6a2vFf1LVteAFRwm6jyj-26" target="CuVekwpNMo5QbRq_H-KT-116" edge="1">
          <mxGeometry width="160" relative="1" as="geometry">
            <mxPoint x="270" y="-82" as="sourcePoint" />
            <mxPoint x="740" y="-230" as="targetPoint" />
            <Array as="points">
              <mxPoint x="339" y="-210" />
              <mxPoint x="800" y="-210" />
            </Array>
          </mxGeometry>
        </mxCell>
        <mxCell id="6a2vFf1LVteAFRwm6jyj-44" value="" style="endArrow=block;endSize=16;endFill=0;html=1;rounded=0;exitX=0.472;exitY=0.011;exitDx=0;exitDy=0;exitPerimeter=0;entryX=0.515;entryY=1.084;entryDx=0;entryDy=0;entryPerimeter=0;" parent="1" source="6a2vFf1LVteAFRwm6jyj-19" target="CuVekwpNMo5QbRq_H-KT-116" edge="1">
          <mxGeometry width="160" relative="1" as="geometry">
            <mxPoint x="519" y="-80" as="sourcePoint" />
            <mxPoint x="810" y="-200" as="targetPoint" />
          </mxGeometry>
        </mxCell>
        <mxCell id="6a2vFf1LVteAFRwm6jyj-45" value="" style="endArrow=block;endSize=16;endFill=0;html=1;rounded=0;exitX=0.546;exitY=-0.011;exitDx=0;exitDy=0;exitPerimeter=0;entryX=0.519;entryY=1.048;entryDx=0;entryDy=0;entryPerimeter=0;" parent="1" source="6a2vFf1LVteAFRwm6jyj-12" target="CuVekwpNMo5QbRq_H-KT-116" edge="1">
          <mxGeometry width="160" relative="1" as="geometry">
            <mxPoint x="740" y="-85" as="sourcePoint" />
            <mxPoint x="930" y="-190" as="targetPoint" />
            <Array as="points">
              <mxPoint x="1335" y="-210" />
              <mxPoint x="799" y="-210" />
            </Array>
          </mxGeometry>
        </mxCell>
        <mxCell id="6a2vFf1LVteAFRwm6jyj-46" value="" style="endArrow=block;endSize=16;endFill=0;html=1;rounded=0;exitX=0.5;exitY=0;exitDx=0;exitDy=0;entryX=0.49;entryY=1.043;entryDx=0;entryDy=0;entryPerimeter=0;" parent="1" source="OFGFD8s86w9iyIirFIPD-36" target="OFGFD8s86w9iyIirFIPD-29" edge="1">
          <mxGeometry width="160" relative="1" as="geometry">
            <mxPoint x="-1120" y="-162" as="sourcePoint" />
            <mxPoint x="-881" y="-287" as="targetPoint" />
            <Array as="points">
              <mxPoint x="-1100" y="-230" />
              <mxPoint x="-599" y="-230" />
            </Array>
          </mxGeometry>
        </mxCell>
        <mxCell id="6a2vFf1LVteAFRwm6jyj-47" value="" style="endArrow=block;endSize=16;endFill=0;html=1;rounded=0;exitX=0.5;exitY=0;exitDx=0;exitDy=0;entryX=0.495;entryY=0.976;entryDx=0;entryDy=0;entryPerimeter=0;" parent="1" source="OFGFD8s86w9iyIirFIPD-94" target="OFGFD8s86w9iyIirFIPD-29" edge="1">
          <mxGeometry width="160" relative="1" as="geometry">
            <mxPoint x="-871" y="-160" as="sourcePoint" />
            <mxPoint x="-871" y="-285" as="targetPoint" />
          </mxGeometry>
        </mxCell>
        <mxCell id="6a2vFf1LVteAFRwm6jyj-48" value="" style="endArrow=block;endSize=16;endFill=0;html=1;rounded=0;exitX=0.5;exitY=0;exitDx=0;exitDy=0;entryX=0.501;entryY=1.118;entryDx=0;entryDy=0;entryPerimeter=0;" parent="1" source="OFGFD8s86w9iyIirFIPD-56" target="OFGFD8s86w9iyIirFIPD-29" edge="1">
          <mxGeometry width="160" relative="1" as="geometry">
            <mxPoint x="-650" y="-165" as="sourcePoint" />
            <mxPoint x="-863" y="-290" as="targetPoint" />
            <Array as="points">
              <mxPoint x="-30" y="-230" />
              <mxPoint x="-599" y="-230" />
            </Array>
          </mxGeometry>
        </mxCell>
        <mxCell id="6a2vFf1LVteAFRwm6jyj-49" value="" style="endArrow=diamondThin;endFill=0;endSize=24;html=1;rounded=0;exitX=0.507;exitY=1.086;exitDx=0;exitDy=0;exitPerimeter=0;entryX=0.5;entryY=0;entryDx=0;entryDy=0;" parent="1" source="OFGFD8s86w9iyIirFIPD-81" target="OFGFD8s86w9iyIirFIPD-17" edge="1">
          <mxGeometry width="160" relative="1" as="geometry">
            <mxPoint x="-1800" y="39" as="sourcePoint" />
            <mxPoint x="-1614" y="-124" as="targetPoint" />
          </mxGeometry>
        </mxCell>
        <mxCell id="6a2vFf1LVteAFRwm6jyj-10" value="" style="endArrow=diamondThin;endFill=0;endSize=24;html=1;rounded=0;exitX=0;exitY=0.5;exitDx=0;exitDy=0;entryX=1;entryY=0.5;entryDx=0;entryDy=0;" parent="1" source="OFGFD8s86w9iyIirFIPD-70" target="OFGFD8s86w9iyIirFIPD-11" edge="1">
          <mxGeometry width="160" relative="1" as="geometry">
            <mxPoint x="-1219" y="-214" as="sourcePoint" />
            <mxPoint x="-1059" y="-214" as="targetPoint" />
          </mxGeometry>
        </mxCell>
        <mxCell id="6a2vFf1LVteAFRwm6jyj-50" value="" style="endArrow=open;endFill=1;endSize=12;html=1;rounded=0;exitX=0.502;exitY=1.038;exitDx=0;exitDy=0;exitPerimeter=0;entryX=0.5;entryY=0;entryDx=0;entryDy=0;" parent="1" source="cp9rJf0xC1L9SVWynJWX-72" target="OFGFD8s86w9iyIirFIPD-74" edge="1">
          <mxGeometry width="160" relative="1" as="geometry">
            <mxPoint x="-1490" y="-540" as="sourcePoint" />
            <mxPoint x="-1750" y="-550" as="targetPoint" />
            <Array as="points">
              <mxPoint x="-1844" y="-350" />
              <mxPoint x="-1610" y="-350" />
            </Array>
          </mxGeometry>
        </mxCell>
        <mxCell id="6a2vFf1LVteAFRwm6jyj-51" value="" style="endArrow=open;endFill=1;endSize=12;html=1;rounded=0;exitX=0.492;exitY=1.031;exitDx=0;exitDy=0;exitPerimeter=0;entryX=0.5;entryY=0;entryDx=0;entryDy=0;" parent="1" source="PUqLCQDl67QB3bu-2gwk-8" target="OFGFD8s86w9iyIirFIPD-74" edge="1">
          <mxGeometry width="160" relative="1" as="geometry">
            <mxPoint x="-1569" y="-520" as="sourcePoint" />
            <mxPoint x="-1360" y="-520" as="targetPoint" />
            <Array as="points">
              <mxPoint x="-1402" y="-350" />
              <mxPoint x="-1610" y="-350" />
            </Array>
          </mxGeometry>
        </mxCell>
        <mxCell id="6a2vFf1LVteAFRwm6jyj-52" value="" style="endArrow=diamondThin;endFill=1;endSize=24;html=1;rounded=0;exitX=0.448;exitY=1.02;exitDx=0;exitDy=0;exitPerimeter=0;entryX=0.5;entryY=0;entryDx=0;entryDy=0;" parent="1" source="cp9rJf0xC1L9SVWynJWX-25" target="OFGFD8s86w9iyIirFIPD-138" edge="1">
          <mxGeometry width="160" relative="1" as="geometry">
            <mxPoint x="-1708.4" y="-1487.21" as="sourcePoint" />
            <mxPoint x="-1070" y="-1240" as="targetPoint" />
            <Array as="points">
              <mxPoint x="-1720" y="-1400" />
              <mxPoint x="-1850" y="-1400" />
            </Array>
          </mxGeometry>
        </mxCell>
        <mxCell id="6a2vFf1LVteAFRwm6jyj-57" value="" style="endArrow=diamondThin;endFill=1;endSize=24;html=1;rounded=0;exitX=0.449;exitY=1.02;exitDx=0;exitDy=0;exitPerimeter=0;entryX=0.5;entryY=0;entryDx=0;entryDy=0;" parent="1" source="cp9rJf0xC1L9SVWynJWX-25" target="CuVekwpNMo5QbRq_H-KT-50" edge="1">
          <mxGeometry width="160" relative="1" as="geometry">
            <mxPoint x="-1708.6" y="-1489.566" as="sourcePoint" />
            <mxPoint x="-1840" y="-1230" as="targetPoint" />
            <Array as="points">
              <mxPoint x="-1720" y="-1400" />
              <mxPoint x="-1580" y="-1400" />
            </Array>
          </mxGeometry>
        </mxCell>
        <mxCell id="6a2vFf1LVteAFRwm6jyj-58" value="" style="endArrow=diamondThin;endFill=1;endSize=24;html=1;rounded=0;exitX=0.5;exitY=1.009;exitDx=0;exitDy=0;exitPerimeter=0;entryX=0.457;entryY=-0.032;entryDx=0;entryDy=0;entryPerimeter=0;" parent="1" source="cp9rJf0xC1L9SVWynJWX-16" target="CuVekwpNMo5QbRq_H-KT-64" edge="1">
          <mxGeometry width="160" relative="1" as="geometry">
            <mxPoint x="-1098.6" y="-1422.988" as="sourcePoint" />
            <mxPoint x="-1830" y="-1220" as="targetPoint" />
            <Array as="points">
              <mxPoint x="-1099" y="-1380" />
              <mxPoint x="-1354" y="-1380" />
            </Array>
          </mxGeometry>
        </mxCell>
        <mxCell id="6a2vFf1LVteAFRwm6jyj-59" value="" style="endArrow=diamondThin;endFill=1;endSize=24;html=1;rounded=0;entryX=0.5;entryY=0;entryDx=0;entryDy=0;exitX=0.503;exitY=1.115;exitDx=0;exitDy=0;exitPerimeter=0;" parent="1" source="cp9rJf0xC1L9SVWynJWX-28" target="cp9rJf0xC1L9SVWynJWX-34" edge="1">
          <mxGeometry width="160" relative="1" as="geometry">
            <mxPoint x="-580.5" y="-1437" as="sourcePoint" />
            <mxPoint x="-577.5" y="-1320" as="targetPoint" />
          </mxGeometry>
        </mxCell>
        <mxCell id="6a2vFf1LVteAFRwm6jyj-61" value="" style="endArrow=diamondThin;endFill=1;endSize=24;html=1;rounded=0;exitX=0.495;exitY=0.964;exitDx=0;exitDy=0;exitPerimeter=0;entryX=0.555;entryY=0.006;entryDx=0;entryDy=0;entryPerimeter=0;" parent="1" source="PUqLCQDl67QB3bu-2gwk-29" target="OFGFD8s86w9iyIirFIPD-41" edge="1">
          <mxGeometry width="160" relative="1" as="geometry">
            <mxPoint x="412" y="-1531.584" as="sourcePoint" />
            <mxPoint x="293" y="-1250" as="targetPoint" />
            <Array as="points">
              <mxPoint x="283" y="-1400" />
              <mxPoint x="560" y="-1400" />
            </Array>
          </mxGeometry>
        </mxCell>
        <mxCell id="6a2vFf1LVteAFRwm6jyj-62" value="" style="endArrow=diamondThin;endFill=1;endSize=24;html=1;rounded=0;exitX=0.498;exitY=1.029;exitDx=0;exitDy=0;exitPerimeter=0;entryX=0.5;entryY=0;entryDx=0;entryDy=0;" parent="1" source="cp9rJf0xC1L9SVWynJWX-51" target="OFGFD8s86w9iyIirFIPD-102" edge="1">
          <mxGeometry width="160" relative="1" as="geometry">
            <mxPoint x="1070.6" y="-1527.45" as="sourcePoint" />
            <mxPoint x="956" y="-1247" as="targetPoint" />
            <Array as="points">
              <mxPoint x="1080" y="-1439" />
              <mxPoint x="960" y="-1439" />
            </Array>
          </mxGeometry>
        </mxCell>
        <mxCell id="6a2vFf1LVteAFRwm6jyj-63" value="" style="endArrow=diamondThin;endFill=1;endSize=24;html=1;rounded=0;exitX=0.496;exitY=1.003;exitDx=0;exitDy=0;exitPerimeter=0;entryX=0.5;entryY=0;entryDx=0;entryDy=0;" parent="1" source="cp9rJf0xC1L9SVWynJWX-51" target="cp9rJf0xC1L9SVWynJWX-52" edge="1">
          <mxGeometry width="160" relative="1" as="geometry">
            <mxPoint x="1069.6" y="-1529.124" as="sourcePoint" />
            <mxPoint x="1200" y="-1359" as="targetPoint" />
            <Array as="points">
              <mxPoint x="1080" y="-1439" />
              <mxPoint x="1200" y="-1439" />
            </Array>
          </mxGeometry>
        </mxCell>
        <mxCell id="pTUxfAZWy1KwxuOITRB0-1" value="Use" style="endArrow=open;endSize=12;dashed=1;html=1;rounded=0;exitX=1;exitY=0.5;exitDx=0;exitDy=0;entryX=0;entryY=0.5;entryDx=0;entryDy=0;" parent="1" source="OFGFD8s86w9iyIirFIPD-70" target="OFGFD8s86w9iyIirFIPD-40" edge="1">
          <mxGeometry width="160" relative="1" as="geometry">
            <mxPoint x="-1310" y="67" as="sourcePoint" />
            <mxPoint x="-580" y="-680" as="targetPoint" />
            <Array as="points">
              <mxPoint x="-1260" y="67" />
              <mxPoint x="-1260" y="-270" />
              <mxPoint x="-890" y="-270" />
              <mxPoint x="-890" y="-335" />
            </Array>
          </mxGeometry>
        </mxCell>
        <mxCell id="pTUxfAZWy1KwxuOITRB0-2" value="" style="endArrow=diamondThin;endFill=0;endSize=24;html=1;rounded=0;exitX=0.493;exitY=1.011;exitDx=0;exitDy=0;exitPerimeter=0;entryX=0.5;entryY=0;entryDx=0;entryDy=0;" parent="1" source="cp9rJf0xC1L9SVWynJWX-61" target="cp9rJf0xC1L9SVWynJWX-18" edge="1">
          <mxGeometry width="160" relative="1" as="geometry">
            <mxPoint x="-561.1999999999998" y="-1919.752" as="sourcePoint" />
            <mxPoint x="-1710" y="-1640" as="targetPoint" />
            <Array as="points">
              <mxPoint x="-560" y="-1840" />
              <mxPoint x="-1710" y="-1840" />
            </Array>
          </mxGeometry>
        </mxCell>
        <mxCell id="pTUxfAZWy1KwxuOITRB0-3" value="" style="endArrow=diamondThin;endFill=0;endSize=24;html=1;rounded=0;exitX=0.493;exitY=0.997;exitDx=0;exitDy=0;exitPerimeter=0;entryX=0.5;entryY=0;entryDx=0;entryDy=0;" parent="1" source="cp9rJf0xC1L9SVWynJWX-61" target="cp9rJf0xC1L9SVWynJWX-9" edge="1">
          <mxGeometry width="160" relative="1" as="geometry">
            <mxPoint x="-560.7999999999997" y="-1919.442" as="sourcePoint" />
            <mxPoint x="-1300" y="-1640" as="targetPoint" />
            <Array as="points">
              <mxPoint x="-561" y="-1840" />
              <mxPoint x="-1100" y="-1840" />
            </Array>
          </mxGeometry>
        </mxCell>
        <mxCell id="pTUxfAZWy1KwxuOITRB0-4" value="" style="endArrow=diamondThin;endFill=0;endSize=24;html=1;rounded=0;exitX=0.494;exitY=1.015;exitDx=0;exitDy=0;exitPerimeter=0;entryX=0.5;entryY=0;entryDx=0;entryDy=0;" parent="1" source="cp9rJf0xC1L9SVWynJWX-61" target="CuVekwpNMo5QbRq_H-KT-36" edge="1">
          <mxGeometry width="160" relative="1" as="geometry">
            <mxPoint x="-560.7999999999997" y="-1919.442" as="sourcePoint" />
            <mxPoint x="-991" y="-1460" as="targetPoint" />
            <Array as="points">
              <mxPoint x="-560" y="-1840" />
            </Array>
          </mxGeometry>
        </mxCell>
        <mxCell id="pTUxfAZWy1KwxuOITRB0-5" value="" style="endArrow=diamondThin;endFill=0;endSize=24;html=1;rounded=0;exitX=0.493;exitY=1.011;exitDx=0;exitDy=0;exitPerimeter=0;entryX=0.553;entryY=-0.005;entryDx=0;entryDy=0;entryPerimeter=0;" parent="1" source="cp9rJf0xC1L9SVWynJWX-61" target="CuVekwpNMo5QbRq_H-KT-30" edge="1">
          <mxGeometry width="160" relative="1" as="geometry">
            <mxPoint x="-561" y="-1918.512" as="sourcePoint" />
            <mxPoint x="-530" y="-1540" as="targetPoint" />
            <Array as="points">
              <mxPoint x="-560" y="-1840" />
              <mxPoint x="299" y="-1840" />
            </Array>
          </mxGeometry>
        </mxCell>
        <mxCell id="pTUxfAZWy1KwxuOITRB0-6" value="" style="endArrow=diamondThin;endFill=0;endSize=24;html=1;rounded=0;exitX=0.493;exitY=1.001;exitDx=0;exitDy=0;exitPerimeter=0;entryX=0.5;entryY=0;entryDx=0;entryDy=0;" parent="1" source="cp9rJf0xC1L9SVWynJWX-61" target="cp9rJf0xC1L9SVWynJWX-44" edge="1">
          <mxGeometry width="160" relative="1" as="geometry">
            <mxPoint x="-560.7999999999997" y="-1919.442" as="sourcePoint" />
            <mxPoint x="-20" y="-1640" as="targetPoint" />
            <Array as="points">
              <mxPoint x="-560" y="-1840" />
              <mxPoint x="1080" y="-1840" />
            </Array>
          </mxGeometry>
        </mxCell>
        <mxCell id="cp9rJf0xC1L9SVWynJWX-1" value="" style="endArrow=diamondThin;endFill=1;endSize=24;html=1;rounded=0;entryX=0.476;entryY=-0.003;entryDx=0;entryDy=0;entryPerimeter=0;exitX=0.504;exitY=1.046;exitDx=0;exitDy=0;exitPerimeter=0;" parent="1" source="jFVlbaEkTlmOw9In86_X-6" target="CuVekwpNMo5QbRq_H-KT-87" edge="1">
          <mxGeometry width="160" relative="1" as="geometry">
            <mxPoint x="-220" y="-1070" as="sourcePoint" />
            <mxPoint x="-298.8699999999999" y="-906.1700000000001" as="targetPoint" />
            <Array as="points">
              <mxPoint x="-20" y="-1040" />
              <mxPoint x="-311" y="-1040" />
            </Array>
          </mxGeometry>
        </mxCell>
        <mxCell id="cp9rJf0xC1L9SVWynJWX-2" value="" style="endArrow=diamondThin;endFill=1;endSize=24;html=1;rounded=0;exitX=0.501;exitY=1.077;exitDx=0;exitDy=0;exitPerimeter=0;entryX=0.5;entryY=0;entryDx=0;entryDy=0;" parent="1" source="jFVlbaEkTlmOw9In86_X-6" target="CuVekwpNMo5QbRq_H-KT-95" edge="1">
          <mxGeometry width="160" relative="1" as="geometry">
            <mxPoint x="8.760000000000218" y="-1060.0040000000001" as="sourcePoint" />
            <mxPoint x="5.9999999999990905" y="-906.1700000000001" as="targetPoint" />
          </mxGeometry>
        </mxCell>
        <mxCell id="cp9rJf0xC1L9SVWynJWX-3" value="" style="endArrow=diamondThin;endFill=1;endSize=24;html=1;rounded=0;exitX=0.504;exitY=1.108;exitDx=0;exitDy=0;exitPerimeter=0;entryX=0.5;entryY=0;entryDx=0;entryDy=0;" parent="1" source="jFVlbaEkTlmOw9In86_X-6" target="CuVekwpNMo5QbRq_H-KT-102" edge="1">
          <mxGeometry width="160" relative="1" as="geometry">
            <mxPoint x="320.8299999999999" y="-1032.028" as="sourcePoint" />
            <mxPoint x="315.9999999999991" y="-909.1700000000001" as="targetPoint" />
            <Array as="points">
              <mxPoint x="-19" y="-1040" />
              <mxPoint x="310" y="-1040" />
            </Array>
          </mxGeometry>
        </mxCell>
        <mxCell id="cp9rJf0xC1L9SVWynJWX-9" value="MenuManager" style="swimlane;fontStyle=1;align=center;verticalAlign=top;childLayout=stackLayout;horizontal=1;startSize=26;horizontalStack=0;resizeParent=1;resizeParentMax=0;resizeLast=0;collapsible=1;marginBottom=0;whiteSpace=wrap;html=1;" parent="1" vertex="1">
          <mxGeometry x="-1200" y="-1640" width="200" height="112" as="geometry" />
        </mxCell>
        <mxCell id="cp9rJf0xC1L9SVWynJWX-11" value="" style="line;strokeWidth=1;fillColor=none;align=left;verticalAlign=middle;spacingTop=-1;spacingLeft=3;spacingRight=3;rotatable=0;labelPosition=right;points=[];portConstraint=eastwest;strokeColor=inherit;" parent="cp9rJf0xC1L9SVWynJWX-9" vertex="1">
          <mxGeometry y="26" width="200" height="8" as="geometry" />
        </mxCell>
        <mxCell id="cp9rJf0xC1L9SVWynJWX-12" value="+ DisplayMainMenu(): void" style="text;strokeColor=none;fillColor=none;align=left;verticalAlign=top;spacingLeft=4;spacingRight=4;overflow=hidden;rotatable=0;points=[[0,0.5],[1,0.5]];portConstraint=eastwest;whiteSpace=wrap;html=1;" parent="cp9rJf0xC1L9SVWynJWX-9" vertex="1">
          <mxGeometry y="34" width="200" height="26" as="geometry" />
        </mxCell>
        <mxCell id="PUqLCQDl67QB3bu-2gwk-9" value="+ DisplayGameMenu(): void" style="text;strokeColor=none;fillColor=none;align=left;verticalAlign=top;spacingLeft=4;spacingRight=4;overflow=hidden;rotatable=0;points=[[0,0.5],[1,0.5]];portConstraint=eastwest;whiteSpace=wrap;html=1;" parent="cp9rJf0xC1L9SVWynJWX-9" vertex="1">
          <mxGeometry y="60" width="200" height="26" as="geometry" />
        </mxCell>
        <mxCell id="cp9rJf0xC1L9SVWynJWX-16" value="+ DisplaySelectionMenu(): void" style="text;strokeColor=none;fillColor=none;align=left;verticalAlign=top;spacingLeft=4;spacingRight=4;overflow=hidden;rotatable=0;points=[[0,0.5],[1,0.5]];portConstraint=eastwest;whiteSpace=wrap;html=1;" parent="cp9rJf0xC1L9SVWynJWX-9" vertex="1">
          <mxGeometry y="86" width="200" height="26" as="geometry" />
        </mxCell>
        <mxCell id="cp9rJf0xC1L9SVWynJWX-18" value="RaceControlManager" style="swimlane;fontStyle=1;align=center;verticalAlign=top;childLayout=stackLayout;horizontal=1;startSize=26;horizontalStack=0;resizeParent=1;resizeParentMax=0;resizeLast=0;collapsible=1;marginBottom=0;whiteSpace=wrap;html=1;" parent="1" vertex="1">
          <mxGeometry x="-1810" y="-1640" width="200" height="190" as="geometry" />
        </mxCell>
        <mxCell id="cp9rJf0xC1L9SVWynJWX-19" value="- lapsRemaining: int" style="text;strokeColor=none;fillColor=none;align=left;verticalAlign=top;spacingLeft=4;spacingRight=4;overflow=hidden;rotatable=0;points=[[0,0.5],[1,0.5]];portConstraint=eastwest;whiteSpace=wrap;html=1;" parent="cp9rJf0xC1L9SVWynJWX-18" vertex="1">
          <mxGeometry y="26" width="200" height="26" as="geometry" />
        </mxCell>
        <mxCell id="cp9rJf0xC1L9SVWynJWX-20" value="- raceStarted: bool" style="text;strokeColor=none;fillColor=none;align=left;verticalAlign=top;spacingLeft=4;spacingRight=4;overflow=hidden;rotatable=0;points=[[0,0.5],[1,0.5]];portConstraint=eastwest;whiteSpace=wrap;html=1;" parent="cp9rJf0xC1L9SVWynJWX-18" vertex="1">
          <mxGeometry y="52" width="200" height="26" as="geometry" />
        </mxCell>
        <mxCell id="cp9rJf0xC1L9SVWynJWX-21" value="- raceEnded: bool" style="text;strokeColor=none;fillColor=none;align=left;verticalAlign=top;spacingLeft=4;spacingRight=4;overflow=hidden;rotatable=0;points=[[0,0.5],[1,0.5]];portConstraint=eastwest;whiteSpace=wrap;html=1;" parent="cp9rJf0xC1L9SVWynJWX-18" vertex="1">
          <mxGeometry y="78" width="200" height="26" as="geometry" />
        </mxCell>
        <mxCell id="cp9rJf0xC1L9SVWynJWX-22" value="" style="line;strokeWidth=1;fillColor=none;align=left;verticalAlign=middle;spacingTop=-1;spacingLeft=3;spacingRight=3;rotatable=0;labelPosition=right;points=[];portConstraint=eastwest;strokeColor=inherit;" parent="cp9rJf0xC1L9SVWynJWX-18" vertex="1">
          <mxGeometry y="104" width="200" height="8" as="geometry" />
        </mxCell>
        <mxCell id="cp9rJf0xC1L9SVWynJWX-23" value="+ StartRace(): void" style="text;strokeColor=none;fillColor=none;align=left;verticalAlign=top;spacingLeft=4;spacingRight=4;overflow=hidden;rotatable=0;points=[[0,0.5],[1,0.5]];portConstraint=eastwest;whiteSpace=wrap;html=1;" parent="cp9rJf0xC1L9SVWynJWX-18" vertex="1">
          <mxGeometry y="112" width="200" height="26" as="geometry" />
        </mxCell>
        <mxCell id="cp9rJf0xC1L9SVWynJWX-24" value="+ EndRace(): void" style="text;strokeColor=none;fillColor=none;align=left;verticalAlign=top;spacingLeft=4;spacingRight=4;overflow=hidden;rotatable=0;points=[[0,0.5],[1,0.5]];portConstraint=eastwest;whiteSpace=wrap;html=1;" parent="cp9rJf0xC1L9SVWynJWX-18" vertex="1">
          <mxGeometry y="138" width="200" height="26" as="geometry" />
        </mxCell>
        <mxCell id="cp9rJf0xC1L9SVWynJWX-25" value="+ UpdateRaceStatus(): void" style="text;strokeColor=none;fillColor=none;align=left;verticalAlign=top;spacingLeft=4;spacingRight=4;overflow=hidden;rotatable=0;points=[[0,0.5],[1,0.5]];portConstraint=eastwest;whiteSpace=wrap;html=1;" parent="cp9rJf0xC1L9SVWynJWX-18" vertex="1">
          <mxGeometry y="164" width="200" height="26" as="geometry" />
        </mxCell>
        <mxCell id="cp9rJf0xC1L9SVWynJWX-34" value="Sound" style="swimlane;fontStyle=1;align=center;verticalAlign=top;childLayout=stackLayout;horizontal=1;startSize=26;horizontalStack=0;resizeParent=1;resizeParentMax=0;resizeLast=0;collapsible=1;marginBottom=0;whiteSpace=wrap;html=1;" parent="1" vertex="1">
          <mxGeometry x="-659" y="-1319" width="200" height="202" as="geometry" />
        </mxCell>
        <mxCell id="cp9rJf0xC1L9SVWynJWX-35" value="- backgroundMusic: AudioClip" style="text;strokeColor=none;fillColor=none;align=left;verticalAlign=top;spacingLeft=4;spacingRight=4;overflow=hidden;rotatable=0;points=[[0,0.5],[1,0.5]];portConstraint=eastwest;whiteSpace=wrap;html=1;" parent="cp9rJf0xC1L9SVWynJWX-34" vertex="1">
          <mxGeometry y="26" width="200" height="24" as="geometry" />
        </mxCell>
        <mxCell id="cp9rJf0xC1L9SVWynJWX-36" value="- effects: List&amp;lt;AudioClip&amp;gt;" style="text;strokeColor=none;fillColor=none;align=left;verticalAlign=top;spacingLeft=4;spacingRight=4;overflow=hidden;rotatable=0;points=[[0,0.5],[1,0.5]];portConstraint=eastwest;whiteSpace=wrap;html=1;" parent="cp9rJf0xC1L9SVWynJWX-34" vertex="1">
          <mxGeometry y="50" width="200" height="24" as="geometry" />
        </mxCell>
        <mxCell id="cp9rJf0xC1L9SVWynJWX-37" value="- time: float" style="text;strokeColor=none;fillColor=none;align=left;verticalAlign=top;spacingLeft=4;spacingRight=4;overflow=hidden;rotatable=0;points=[[0,0.5],[1,0.5]];portConstraint=eastwest;whiteSpace=wrap;html=1;" parent="cp9rJf0xC1L9SVWynJWX-34" vertex="1">
          <mxGeometry y="74" width="200" height="24" as="geometry" />
        </mxCell>
        <mxCell id="cp9rJf0xC1L9SVWynJWX-38" value="" style="line;strokeWidth=1;fillColor=none;align=left;verticalAlign=middle;spacingTop=-1;spacingLeft=3;spacingRight=3;rotatable=0;labelPosition=right;points=[];portConstraint=eastwest;strokeColor=inherit;" parent="cp9rJf0xC1L9SVWynJWX-34" vertex="1">
          <mxGeometry y="98" width="200" height="8" as="geometry" />
        </mxCell>
        <mxCell id="cp9rJf0xC1L9SVWynJWX-39" value="+ PlayMusic(): void" style="text;strokeColor=none;fillColor=none;align=left;verticalAlign=top;spacingLeft=4;spacingRight=4;overflow=hidden;rotatable=0;points=[[0,0.5],[1,0.5]];portConstraint=eastwest;whiteSpace=wrap;html=1;" parent="cp9rJf0xC1L9SVWynJWX-34" vertex="1">
          <mxGeometry y="106" width="200" height="22" as="geometry" />
        </mxCell>
        <mxCell id="cp9rJf0xC1L9SVWynJWX-40" value="+ StopMusic(): void" style="text;strokeColor=none;fillColor=none;align=left;verticalAlign=top;spacingLeft=4;spacingRight=4;overflow=hidden;rotatable=0;points=[[0,0.5],[1,0.5]];portConstraint=eastwest;whiteSpace=wrap;html=1;" parent="cp9rJf0xC1L9SVWynJWX-34" vertex="1">
          <mxGeometry y="128" width="200" height="22" as="geometry" />
        </mxCell>
        <mxCell id="cp9rJf0xC1L9SVWynJWX-41" value="+ PlayEffect(): void" style="text;strokeColor=none;fillColor=none;align=left;verticalAlign=top;spacingLeft=4;spacingRight=4;overflow=hidden;rotatable=0;points=[[0,0.5],[1,0.5]];portConstraint=eastwest;whiteSpace=wrap;html=1;" parent="cp9rJf0xC1L9SVWynJWX-34" vertex="1">
          <mxGeometry y="150" width="200" height="26" as="geometry" />
        </mxCell>
        <mxCell id="cp9rJf0xC1L9SVWynJWX-42" value="+ StopEffect(): void" style="text;strokeColor=none;fillColor=none;align=left;verticalAlign=top;spacingLeft=4;spacingRight=4;overflow=hidden;rotatable=0;points=[[0,0.5],[1,0.5]];portConstraint=eastwest;whiteSpace=wrap;html=1;" parent="cp9rJf0xC1L9SVWynJWX-34" vertex="1">
          <mxGeometry y="176" width="200" height="26" as="geometry" />
        </mxCell>
        <mxCell id="cp9rJf0xC1L9SVWynJWX-44" value="UIManager" style="swimlane;fontStyle=1;align=center;verticalAlign=top;childLayout=stackLayout;horizontal=1;startSize=26;horizontalStack=0;resizeParent=1;resizeParentMax=0;resizeLast=0;collapsible=1;marginBottom=0;whiteSpace=wrap;html=1;" parent="1" vertex="1">
          <mxGeometry x="1000" y="-1679" width="160" height="190" as="geometry" />
        </mxCell>
        <mxCell id="cp9rJf0xC1L9SVWynJWX-45" value="- miniMap: UIElement" style="text;strokeColor=none;fillColor=none;align=left;verticalAlign=top;spacingLeft=4;spacingRight=4;overflow=hidden;rotatable=0;points=[[0,0.5],[1,0.5]];portConstraint=eastwest;whiteSpace=wrap;html=1;" parent="cp9rJf0xC1L9SVWynJWX-44" vertex="1">
          <mxGeometry y="26" width="160" height="26" as="geometry" />
        </mxCell>
        <mxCell id="cp9rJf0xC1L9SVWynJWX-48" value="- timer: Timer" style="text;strokeColor=none;fillColor=none;align=left;verticalAlign=top;spacingLeft=4;spacingRight=4;overflow=hidden;rotatable=0;points=[[0,0.5],[1,0.5]];portConstraint=eastwest;whiteSpace=wrap;html=1;" parent="cp9rJf0xC1L9SVWynJWX-44" vertex="1">
          <mxGeometry y="52" width="160" height="26" as="geometry" />
        </mxCell>
        <mxCell id="cp9rJf0xC1L9SVWynJWX-49" value="- lapTracker: Text" style="text;strokeColor=none;fillColor=none;align=left;verticalAlign=top;spacingLeft=4;spacingRight=4;overflow=hidden;rotatable=0;points=[[0,0.5],[1,0.5]];portConstraint=eastwest;whiteSpace=wrap;html=1;" parent="cp9rJf0xC1L9SVWynJWX-44" vertex="1">
          <mxGeometry y="78" width="160" height="26" as="geometry" />
        </mxCell>
        <mxCell id="cp9rJf0xC1L9SVWynJWX-46" value="" style="line;strokeWidth=1;fillColor=none;align=left;verticalAlign=middle;spacingTop=-1;spacingLeft=3;spacingRight=3;rotatable=0;labelPosition=right;points=[];portConstraint=eastwest;strokeColor=inherit;" parent="cp9rJf0xC1L9SVWynJWX-44" vertex="1">
          <mxGeometry y="104" width="160" height="8" as="geometry" />
        </mxCell>
        <mxCell id="cp9rJf0xC1L9SVWynJWX-47" value="+ UpdateLapTracker(): void" style="text;strokeColor=none;fillColor=none;align=left;verticalAlign=top;spacingLeft=4;spacingRight=4;overflow=hidden;rotatable=0;points=[[0,0.5],[1,0.5]];portConstraint=eastwest;whiteSpace=wrap;html=1;" parent="cp9rJf0xC1L9SVWynJWX-44" vertex="1">
          <mxGeometry y="112" width="160" height="26" as="geometry" />
        </mxCell>
        <mxCell id="cp9rJf0xC1L9SVWynJWX-50" value="+ UpdateMiniMap(): void" style="text;strokeColor=none;fillColor=none;align=left;verticalAlign=top;spacingLeft=4;spacingRight=4;overflow=hidden;rotatable=0;points=[[0,0.5],[1,0.5]];portConstraint=eastwest;whiteSpace=wrap;html=1;" parent="cp9rJf0xC1L9SVWynJWX-44" vertex="1">
          <mxGeometry y="138" width="160" height="26" as="geometry" />
        </mxCell>
        <mxCell id="cp9rJf0xC1L9SVWynJWX-51" value="+ UpdateTimer(): void" style="text;strokeColor=none;fillColor=none;align=left;verticalAlign=top;spacingLeft=4;spacingRight=4;overflow=hidden;rotatable=0;points=[[0,0.5],[1,0.5]];portConstraint=eastwest;whiteSpace=wrap;html=1;" parent="cp9rJf0xC1L9SVWynJWX-44" vertex="1">
          <mxGeometry y="164" width="160" height="26" as="geometry" />
        </mxCell>
        <mxCell id="cp9rJf0xC1L9SVWynJWX-52" value="Timer" style="swimlane;fontStyle=1;align=center;verticalAlign=top;childLayout=stackLayout;horizontal=1;startSize=26;horizontalStack=0;resizeParent=1;resizeParentMax=0;resizeLast=0;collapsible=1;marginBottom=0;whiteSpace=wrap;html=1;" parent="1" vertex="1">
          <mxGeometry x="1120" y="-1359" width="160" height="112" as="geometry" />
        </mxCell>
        <mxCell id="cp9rJf0xC1L9SVWynJWX-53" value="- time: Timer" style="text;strokeColor=none;fillColor=none;align=left;verticalAlign=top;spacingLeft=4;spacingRight=4;overflow=hidden;rotatable=0;points=[[0,0.5],[1,0.5]];portConstraint=eastwest;whiteSpace=wrap;html=1;" parent="cp9rJf0xC1L9SVWynJWX-52" vertex="1">
          <mxGeometry y="26" width="160" height="26" as="geometry" />
        </mxCell>
        <mxCell id="cp9rJf0xC1L9SVWynJWX-54" value="" style="line;strokeWidth=1;fillColor=none;align=left;verticalAlign=middle;spacingTop=-1;spacingLeft=3;spacingRight=3;rotatable=0;labelPosition=right;points=[];portConstraint=eastwest;strokeColor=inherit;" parent="cp9rJf0xC1L9SVWynJWX-52" vertex="1">
          <mxGeometry y="52" width="160" height="8" as="geometry" />
        </mxCell>
        <mxCell id="cp9rJf0xC1L9SVWynJWX-55" value="+ StartTimer(): void" style="text;strokeColor=none;fillColor=none;align=left;verticalAlign=top;spacingLeft=4;spacingRight=4;overflow=hidden;rotatable=0;points=[[0,0.5],[1,0.5]];portConstraint=eastwest;whiteSpace=wrap;html=1;" parent="cp9rJf0xC1L9SVWynJWX-52" vertex="1">
          <mxGeometry y="60" width="160" height="26" as="geometry" />
        </mxCell>
        <mxCell id="cp9rJf0xC1L9SVWynJWX-57" value="+ EndTimer(): void" style="text;strokeColor=none;fillColor=none;align=left;verticalAlign=top;spacingLeft=4;spacingRight=4;overflow=hidden;rotatable=0;points=[[0,0.5],[1,0.5]];portConstraint=eastwest;whiteSpace=wrap;html=1;" parent="cp9rJf0xC1L9SVWynJWX-52" vertex="1">
          <mxGeometry y="86" width="160" height="26" as="geometry" />
        </mxCell>
        <mxCell id="cp9rJf0xC1L9SVWynJWX-58" value="GameManager" style="swimlane;fontStyle=1;align=center;verticalAlign=top;childLayout=stackLayout;horizontal=1;startSize=26;horizontalStack=0;resizeParent=1;resizeParentMax=0;resizeLast=0;collapsible=1;marginBottom=0;whiteSpace=wrap;html=1;" parent="1" vertex="1">
          <mxGeometry x="-639" y="-2040" width="160" height="112" as="geometry" />
        </mxCell>
        <mxCell id="cp9rJf0xC1L9SVWynJWX-59" value="- gameStarted: bool" style="text;strokeColor=none;fillColor=none;align=left;verticalAlign=top;spacingLeft=4;spacingRight=4;overflow=hidden;rotatable=0;points=[[0,0.5],[1,0.5]];portConstraint=eastwest;whiteSpace=wrap;html=1;" parent="cp9rJf0xC1L9SVWynJWX-58" vertex="1">
          <mxGeometry y="26" width="160" height="26" as="geometry" />
        </mxCell>
        <mxCell id="cp9rJf0xC1L9SVWynJWX-62" value="- gameEnded: bool" style="text;strokeColor=none;fillColor=none;align=left;verticalAlign=top;spacingLeft=4;spacingRight=4;overflow=hidden;rotatable=0;points=[[0,0.5],[1,0.5]];portConstraint=eastwest;whiteSpace=wrap;html=1;" parent="cp9rJf0xC1L9SVWynJWX-58" vertex="1">
          <mxGeometry y="52" width="160" height="26" as="geometry" />
        </mxCell>
        <mxCell id="cp9rJf0xC1L9SVWynJWX-60" value="" style="line;strokeWidth=1;fillColor=none;align=left;verticalAlign=middle;spacingTop=-1;spacingLeft=3;spacingRight=3;rotatable=0;labelPosition=right;points=[];portConstraint=eastwest;strokeColor=inherit;" parent="cp9rJf0xC1L9SVWynJWX-58" vertex="1">
          <mxGeometry y="78" width="160" height="8" as="geometry" />
        </mxCell>
        <mxCell id="cp9rJf0xC1L9SVWynJWX-61" value="+ GameControl(): void" style="text;strokeColor=none;fillColor=none;align=left;verticalAlign=top;spacingLeft=4;spacingRight=4;overflow=hidden;rotatable=0;points=[[0,0.5],[1,0.5]];portConstraint=eastwest;whiteSpace=wrap;html=1;" parent="cp9rJf0xC1L9SVWynJWX-58" vertex="1">
          <mxGeometry y="86" width="160" height="26" as="geometry" />
        </mxCell>
        <mxCell id="PUqLCQDl67QB3bu-2gwk-10" value="GameMenu" style="swimlane;fontStyle=1;align=center;verticalAlign=top;childLayout=stackLayout;horizontal=1;startSize=26;horizontalStack=0;resizeParent=1;resizeParentMax=0;resizeLast=0;collapsible=1;marginBottom=0;whiteSpace=wrap;html=1;" parent="1" vertex="1">
          <mxGeometry x="-960" y="-1320" width="200" height="112" as="geometry" />
        </mxCell>
        <mxCell id="PUqLCQDl67QB3bu-2gwk-11" value="&amp;nbsp;" style="text;strokeColor=none;fillColor=none;align=left;verticalAlign=top;spacingLeft=4;spacingRight=4;overflow=hidden;rotatable=0;points=[[0,0.5],[1,0.5]];portConstraint=eastwest;whiteSpace=wrap;html=1;" parent="PUqLCQDl67QB3bu-2gwk-10" vertex="1">
          <mxGeometry y="26" width="200" height="26" as="geometry" />
        </mxCell>
        <mxCell id="PUqLCQDl67QB3bu-2gwk-12" value="" style="line;strokeWidth=1;fillColor=none;align=left;verticalAlign=middle;spacingTop=-1;spacingLeft=3;spacingRight=3;rotatable=0;labelPosition=right;points=[];portConstraint=eastwest;strokeColor=inherit;" parent="PUqLCQDl67QB3bu-2gwk-10" vertex="1">
          <mxGeometry y="52" width="200" height="8" as="geometry" />
        </mxCell>
        <mxCell id="PUqLCQDl67QB3bu-2gwk-13" value="+ DisplayGameMenu(): void" style="text;strokeColor=none;fillColor=none;align=left;verticalAlign=top;spacingLeft=4;spacingRight=4;overflow=hidden;rotatable=0;points=[[0,0.5],[1,0.5]];portConstraint=eastwest;whiteSpace=wrap;html=1;" parent="PUqLCQDl67QB3bu-2gwk-10" vertex="1">
          <mxGeometry y="60" width="200" height="26" as="geometry" />
        </mxCell>
        <mxCell id="PUqLCQDl67QB3bu-2gwk-14" value="+ StartRace(): void" style="text;strokeColor=none;fillColor=none;align=left;verticalAlign=top;spacingLeft=4;spacingRight=4;overflow=hidden;rotatable=0;points=[[0,0.5],[1,0.5]];portConstraint=eastwest;whiteSpace=wrap;html=1;" parent="PUqLCQDl67QB3bu-2gwk-10" vertex="1">
          <mxGeometry y="86" width="200" height="26" as="geometry" />
        </mxCell>
        <mxCell id="PUqLCQDl67QB3bu-2gwk-16" value="SelectionMenu" style="swimlane;fontStyle=1;align=center;verticalAlign=top;childLayout=stackLayout;horizontal=1;startSize=26;horizontalStack=0;resizeParent=1;resizeParentMax=0;resizeLast=0;collapsible=1;marginBottom=0;whiteSpace=wrap;html=1;" parent="1" vertex="1">
          <mxGeometry x="-1200" y="-1319" width="200" height="60" as="geometry" />
        </mxCell>
        <mxCell id="PUqLCQDl67QB3bu-2gwk-18" value="" style="line;strokeWidth=1;fillColor=none;align=left;verticalAlign=middle;spacingTop=-1;spacingLeft=3;spacingRight=3;rotatable=0;labelPosition=right;points=[];portConstraint=eastwest;strokeColor=inherit;" parent="PUqLCQDl67QB3bu-2gwk-16" vertex="1">
          <mxGeometry y="26" width="200" height="8" as="geometry" />
        </mxCell>
        <mxCell id="PUqLCQDl67QB3bu-2gwk-19" value="+ DisplaySelectionMenu():void" style="text;strokeColor=none;fillColor=none;align=left;verticalAlign=top;spacingLeft=4;spacingRight=4;overflow=hidden;rotatable=0;points=[[0,0.5],[1,0.5]];portConstraint=eastwest;whiteSpace=wrap;html=1;" parent="PUqLCQDl67QB3bu-2gwk-16" vertex="1">
          <mxGeometry y="34" width="200" height="26" as="geometry" />
        </mxCell>
        <mxCell id="PUqLCQDl67QB3bu-2gwk-24" value="" style="endArrow=diamondThin;endFill=1;endSize=24;html=1;rounded=0;exitX=0.5;exitY=1.017;exitDx=0;exitDy=0;exitPerimeter=0;entryX=0.5;entryY=0;entryDx=0;entryDy=0;" parent="1" source="cp9rJf0xC1L9SVWynJWX-16" target="PUqLCQDl67QB3bu-2gwk-16" edge="1">
          <mxGeometry width="160" relative="1" as="geometry">
            <mxPoint x="-1098.1999999999994" y="-1420.518" as="sourcePoint" />
            <mxPoint x="-860" y="-1480" as="targetPoint" />
          </mxGeometry>
        </mxCell>
        <mxCell id="PUqLCQDl67QB3bu-2gwk-25" value="" style="endArrow=diamondThin;endFill=1;endSize=24;html=1;rounded=0;entryX=0.5;entryY=0;entryDx=0;entryDy=0;exitX=0.501;exitY=1.045;exitDx=0;exitDy=0;exitPerimeter=0;" parent="1" source="cp9rJf0xC1L9SVWynJWX-16" target="PUqLCQDl67QB3bu-2gwk-10" edge="1">
          <mxGeometry width="160" relative="1" as="geometry">
            <mxPoint x="-1120" y="-1420" as="sourcePoint" />
            <mxPoint x="-1090" y="-1309" as="targetPoint" />
            <Array as="points">
              <mxPoint x="-1100" y="-1380" />
              <mxPoint x="-860" y="-1380" />
            </Array>
          </mxGeometry>
        </mxCell>
        <mxCell id="jFVlbaEkTlmOw9In86_X-1" value="SelectionScene" style="swimlane;fontStyle=1;align=center;verticalAlign=top;childLayout=stackLayout;horizontal=1;startSize=26;horizontalStack=0;resizeParent=1;resizeParentMax=0;resizeLast=0;collapsible=1;marginBottom=0;whiteSpace=wrap;html=1;" vertex="1" parent="1">
          <mxGeometry x="-150" y="-1320" width="260" height="216" as="geometry" />
        </mxCell>
        <mxCell id="jFVlbaEkTlmOw9In86_X-2" value="+ backToMainMenu: Button" style="text;strokeColor=none;fillColor=none;align=left;verticalAlign=top;spacingLeft=4;spacingRight=4;overflow=hidden;rotatable=0;points=[[0,0.5],[1,0.5]];portConstraint=eastwest;whiteSpace=wrap;html=1;" vertex="1" parent="jFVlbaEkTlmOw9In86_X-1">
          <mxGeometry y="26" width="260" height="26" as="geometry" />
        </mxCell>
        <mxCell id="jFVlbaEkTlmOw9In86_X-8" value="- availableCharacters: List&amp;lt;Characters&amp;gt;" style="text;strokeColor=none;fillColor=none;align=left;verticalAlign=top;spacingLeft=4;spacingRight=4;overflow=hidden;rotatable=0;points=[[0,0.5],[1,0.5]];portConstraint=eastwest;whiteSpace=wrap;html=1;" vertex="1" parent="jFVlbaEkTlmOw9In86_X-1">
          <mxGeometry y="52" width="260" height="26" as="geometry" />
        </mxCell>
        <mxCell id="jFVlbaEkTlmOw9In86_X-9" value="- availableVehicles: List&amp;lt;Vehicles&amp;gt;" style="text;strokeColor=none;fillColor=none;align=left;verticalAlign=top;spacingLeft=4;spacingRight=4;overflow=hidden;rotatable=0;points=[[0,0.5],[1,0.5]];portConstraint=eastwest;whiteSpace=wrap;html=1;" vertex="1" parent="jFVlbaEkTlmOw9In86_X-1">
          <mxGeometry y="78" width="260" height="26" as="geometry" />
        </mxCell>
        <mxCell id="jFVlbaEkTlmOw9In86_X-10" value="- availableMaps: List&amp;lt;Maps&amp;gt;" style="text;strokeColor=none;fillColor=none;align=left;verticalAlign=top;spacingLeft=4;spacingRight=4;overflow=hidden;rotatable=0;points=[[0,0.5],[1,0.5]];portConstraint=eastwest;whiteSpace=wrap;html=1;" vertex="1" parent="jFVlbaEkTlmOw9In86_X-1">
          <mxGeometry y="104" width="260" height="26" as="geometry" />
        </mxCell>
        <mxCell id="jFVlbaEkTlmOw9In86_X-3" value="" style="line;strokeWidth=1;fillColor=none;align=left;verticalAlign=middle;spacingTop=-1;spacingLeft=3;spacingRight=3;rotatable=0;labelPosition=right;points=[];portConstraint=eastwest;strokeColor=inherit;" vertex="1" parent="jFVlbaEkTlmOw9In86_X-1">
          <mxGeometry y="130" width="260" height="8" as="geometry" />
        </mxCell>
        <mxCell id="jFVlbaEkTlmOw9In86_X-4" value="+ LoadCharacterSelectionScene(): void" style="text;strokeColor=none;fillColor=none;align=left;verticalAlign=top;spacingLeft=4;spacingRight=4;overflow=hidden;rotatable=0;points=[[0,0.5],[1,0.5]];portConstraint=eastwest;whiteSpace=wrap;html=1;" vertex="1" parent="jFVlbaEkTlmOw9In86_X-1">
          <mxGeometry y="138" width="260" height="26" as="geometry" />
        </mxCell>
        <mxCell id="jFVlbaEkTlmOw9In86_X-5" value="+ LoadVehicleSelectionScene(): void" style="text;strokeColor=none;fillColor=none;align=left;verticalAlign=top;spacingLeft=4;spacingRight=4;overflow=hidden;rotatable=0;points=[[0,0.5],[1,0.5]];portConstraint=eastwest;whiteSpace=wrap;html=1;" vertex="1" parent="jFVlbaEkTlmOw9In86_X-1">
          <mxGeometry y="164" width="260" height="26" as="geometry" />
        </mxCell>
        <mxCell id="jFVlbaEkTlmOw9In86_X-6" value="+ LoadMapSelectionScene(): void" style="text;strokeColor=none;fillColor=none;align=left;verticalAlign=top;spacingLeft=4;spacingRight=4;overflow=hidden;rotatable=0;points=[[0,0.5],[1,0.5]];portConstraint=eastwest;whiteSpace=wrap;html=1;" vertex="1" parent="jFVlbaEkTlmOw9In86_X-1">
          <mxGeometry y="190" width="260" height="26" as="geometry" />
        </mxCell>
        <mxCell id="jFVlbaEkTlmOw9In86_X-13" value="" style="endArrow=diamondThin;endFill=1;endSize=24;html=1;rounded=0;entryX=0.5;entryY=0;entryDx=0;entryDy=0;exitX=0.497;exitY=0.986;exitDx=0;exitDy=0;exitPerimeter=0;" edge="1" parent="1" source="PUqLCQDl67QB3bu-2gwk-29" target="jFVlbaEkTlmOw9In86_X-1">
          <mxGeometry width="160" relative="1" as="geometry">
            <mxPoint x="250" y="-1440" as="sourcePoint" />
            <mxPoint x="310" y="-1320" as="targetPoint" />
            <Array as="points">
              <mxPoint x="283" y="-1400" />
              <mxPoint x="-20" y="-1400" />
            </Array>
          </mxGeometry>
        </mxCell>
        <mxCell id="jFVlbaEkTlmOw9In86_X-14" value="" style="endArrow=diamondThin;endFill=1;endSize=24;html=1;rounded=0;exitX=0.496;exitY=0.92;exitDx=0;exitDy=0;exitPerimeter=0;entryX=0.5;entryY=0;entryDx=0;entryDy=0;" edge="1" parent="1" source="PUqLCQDl67QB3bu-2gwk-29" target="CuVekwpNMo5QbRq_H-KT-70">
          <mxGeometry width="160" relative="1" as="geometry">
            <mxPoint x="180" y="-1390" as="sourcePoint" />
            <mxPoint x="340" y="-1390" as="targetPoint" />
          </mxGeometry>
        </mxCell>
        <mxCell id="jFVlbaEkTlmOw9In86_X-15" value="1" style="text;html=1;align=center;verticalAlign=middle;resizable=0;points=[];autosize=1;strokeColor=none;fillColor=none;" vertex="1" parent="1">
          <mxGeometry x="-1700" y="-1680" width="30" height="30" as="geometry" />
        </mxCell>
        <mxCell id="jFVlbaEkTlmOw9In86_X-16" value="1" style="text;html=1;align=center;verticalAlign=middle;resizable=0;points=[];autosize=1;strokeColor=none;fillColor=none;" vertex="1" parent="1">
          <mxGeometry x="-1720" y="-1450" width="30" height="30" as="geometry" />
        </mxCell>
        <mxCell id="jFVlbaEkTlmOw9In86_X-17" value="1" style="text;html=1;align=center;verticalAlign=middle;resizable=0;points=[];autosize=1;strokeColor=none;fillColor=none;" vertex="1" parent="1">
          <mxGeometry x="-1570" y="-1359" width="30" height="30" as="geometry" />
        </mxCell>
        <mxCell id="jFVlbaEkTlmOw9In86_X-18" value="1" style="text;html=1;align=center;verticalAlign=middle;resizable=0;points=[];autosize=1;strokeColor=none;fillColor=none;" vertex="1" parent="1">
          <mxGeometry x="-1840" y="-1350" width="30" height="30" as="geometry" />
        </mxCell>
        <mxCell id="jFVlbaEkTlmOw9In86_X-19" value="1" style="text;html=1;align=center;verticalAlign=middle;resizable=0;points=[];autosize=1;strokeColor=none;fillColor=none;" vertex="1" parent="1">
          <mxGeometry x="-1330" y="-1359" width="30" height="30" as="geometry" />
        </mxCell>
        <mxCell id="jFVlbaEkTlmOw9In86_X-20" value="1" style="text;html=1;align=center;verticalAlign=middle;resizable=0;points=[];autosize=1;strokeColor=none;fillColor=none;" vertex="1" parent="1">
          <mxGeometry x="-1090" y="-1349" width="30" height="30" as="geometry" />
        </mxCell>
        <mxCell id="jFVlbaEkTlmOw9In86_X-21" value="1" style="text;html=1;align=center;verticalAlign=middle;resizable=0;points=[];autosize=1;strokeColor=none;fillColor=none;" vertex="1" parent="1">
          <mxGeometry x="-850" y="-1359" width="30" height="30" as="geometry" />
        </mxCell>
        <mxCell id="jFVlbaEkTlmOw9In86_X-22" value="1" style="text;html=1;align=center;verticalAlign=middle;resizable=0;points=[];autosize=1;strokeColor=none;fillColor=none;" vertex="1" parent="1">
          <mxGeometry x="-1090" y="-1519" width="30" height="30" as="geometry" />
        </mxCell>
        <mxCell id="jFVlbaEkTlmOw9In86_X-23" value="1" style="text;html=1;align=center;verticalAlign=middle;resizable=0;points=[];autosize=1;strokeColor=none;fillColor=none;" vertex="1" parent="1">
          <mxGeometry x="-550" y="-1350" width="30" height="30" as="geometry" />
        </mxCell>
        <mxCell id="jFVlbaEkTlmOw9In86_X-24" value="1" style="text;html=1;align=center;verticalAlign=middle;resizable=0;points=[];autosize=1;strokeColor=none;fillColor=none;" vertex="1" parent="1">
          <mxGeometry x="-560" y="-1438" width="30" height="30" as="geometry" />
        </mxCell>
        <mxCell id="jFVlbaEkTlmOw9In86_X-25" value="1" style="text;html=1;align=center;verticalAlign=middle;resizable=0;points=[];autosize=1;strokeColor=none;fillColor=none;" vertex="1" parent="1">
          <mxGeometry x="-10" y="-1359" width="30" height="30" as="geometry" />
        </mxCell>
        <mxCell id="jFVlbaEkTlmOw9In86_X-26" value="1" style="text;html=1;align=center;verticalAlign=middle;resizable=0;points=[];autosize=1;strokeColor=none;fillColor=none;" vertex="1" parent="1">
          <mxGeometry x="290" y="-1359" width="30" height="30" as="geometry" />
        </mxCell>
        <mxCell id="jFVlbaEkTlmOw9In86_X-27" value="1" style="text;html=1;align=center;verticalAlign=middle;resizable=0;points=[];autosize=1;strokeColor=none;fillColor=none;" vertex="1" parent="1">
          <mxGeometry x="570" y="-1359" width="30" height="30" as="geometry" />
        </mxCell>
        <mxCell id="jFVlbaEkTlmOw9In86_X-28" value="1" style="text;html=1;align=center;verticalAlign=middle;resizable=0;points=[];autosize=1;strokeColor=none;fillColor=none;" vertex="1" parent="1">
          <mxGeometry x="296" y="-1438" width="30" height="30" as="geometry" />
        </mxCell>
        <mxCell id="jFVlbaEkTlmOw9In86_X-29" value="1" style="text;html=1;align=center;verticalAlign=middle;resizable=0;points=[];autosize=1;strokeColor=none;fillColor=none;" vertex="1" parent="1">
          <mxGeometry x="970" y="-1389" width="30" height="30" as="geometry" />
        </mxCell>
        <mxCell id="jFVlbaEkTlmOw9In86_X-30" value="1" style="text;html=1;align=center;verticalAlign=middle;resizable=0;points=[];autosize=1;strokeColor=none;fillColor=none;" vertex="1" parent="1">
          <mxGeometry x="1090" y="-1480" width="30" height="30" as="geometry" />
        </mxCell>
        <mxCell id="jFVlbaEkTlmOw9In86_X-31" value="1" style="text;html=1;align=center;verticalAlign=middle;resizable=0;points=[];autosize=1;strokeColor=none;fillColor=none;" vertex="1" parent="1">
          <mxGeometry x="1211" y="-1389" width="30" height="30" as="geometry" />
        </mxCell>
        <mxCell id="jFVlbaEkTlmOw9In86_X-32" value="1" style="text;html=1;align=center;verticalAlign=middle;resizable=0;points=[];autosize=1;strokeColor=none;fillColor=none;" vertex="1" parent="1">
          <mxGeometry x="-1090" y="-1678" width="30" height="30" as="geometry" />
        </mxCell>
        <mxCell id="jFVlbaEkTlmOw9In86_X-33" value="1" style="text;html=1;align=center;verticalAlign=middle;resizable=0;points=[];autosize=1;strokeColor=none;fillColor=none;" vertex="1" parent="1">
          <mxGeometry x="-550" y="-1678" width="30" height="30" as="geometry" />
        </mxCell>
        <mxCell id="jFVlbaEkTlmOw9In86_X-34" value="1" style="text;html=1;align=center;verticalAlign=middle;resizable=0;points=[];autosize=1;strokeColor=none;fillColor=none;" vertex="1" parent="1">
          <mxGeometry x="296" y="-1692" width="30" height="30" as="geometry" />
        </mxCell>
        <mxCell id="jFVlbaEkTlmOw9In86_X-36" value="1" style="text;html=1;align=center;verticalAlign=middle;resizable=0;points=[];autosize=1;strokeColor=none;fillColor=none;" vertex="1" parent="1">
          <mxGeometry x="1090" y="-1722" width="30" height="30" as="geometry" />
        </mxCell>
        <mxCell id="jFVlbaEkTlmOw9In86_X-38" value="1" style="text;html=1;align=center;verticalAlign=middle;resizable=0;points=[];autosize=1;strokeColor=none;fillColor=none;" vertex="1" parent="1">
          <mxGeometry x="-550" y="-1920" width="30" height="30" as="geometry" />
        </mxCell>
        <mxCell id="jFVlbaEkTlmOw9In86_X-39" value="1" style="text;html=1;align=center;verticalAlign=middle;resizable=0;points=[];autosize=1;strokeColor=none;fillColor=none;" vertex="1" parent="1">
          <mxGeometry x="-10" y="-1100" width="30" height="30" as="geometry" />
        </mxCell>
        <mxCell id="jFVlbaEkTlmOw9In86_X-40" value="1" style="text;html=1;align=center;verticalAlign=middle;resizable=0;points=[];autosize=1;strokeColor=none;fillColor=none;" vertex="1" parent="1">
          <mxGeometry x="-305" y="-1010" width="30" height="30" as="geometry" />
        </mxCell>
        <mxCell id="jFVlbaEkTlmOw9In86_X-41" value="1" style="text;html=1;align=center;verticalAlign=middle;resizable=0;points=[];autosize=1;strokeColor=none;fillColor=none;" vertex="1" parent="1">
          <mxGeometry x="-10" y="-1010" width="30" height="30" as="geometry" />
        </mxCell>
        <mxCell id="jFVlbaEkTlmOw9In86_X-42" value="1" style="text;html=1;align=center;verticalAlign=middle;resizable=0;points=[];autosize=1;strokeColor=none;fillColor=none;" vertex="1" parent="1">
          <mxGeometry x="315" y="-1010" width="30" height="30" as="geometry" />
        </mxCell>
        <mxCell id="jFVlbaEkTlmOw9In86_X-43" value="&lt;font style=&quot;font-size: 18px;&quot;&gt;GameLogic&lt;/font&gt;" style="text;html=1;align=center;verticalAlign=middle;resizable=0;points=[];autosize=1;strokeColor=none;fillColor=none;" vertex="1" parent="1">
          <mxGeometry x="-2000" y="-2160" width="120" height="40" as="geometry" />
        </mxCell>
        <mxCell id="jFVlbaEkTlmOw9In86_X-44" value="&lt;font style=&quot;font-size: 18px;&quot;&gt;&lt;b&gt;GameLogic&lt;/b&gt;&lt;/font&gt;" style="rounded=0;whiteSpace=wrap;html=1;" vertex="1" parent="1">
          <mxGeometry x="-2000" y="-2160" width="120" height="40" as="geometry" />
        </mxCell>
        <mxCell id="jFVlbaEkTlmOw9In86_X-45" value="&lt;font style=&quot;font-size: 18px;&quot;&gt;&lt;b&gt;PlayerLogic&lt;/b&gt;&lt;/font&gt;" style="rounded=0;whiteSpace=wrap;html=1;" vertex="1" parent="1">
          <mxGeometry x="-2120" y="-800" width="120" height="40" as="geometry" />
        </mxCell>
        <mxCell id="jFVlbaEkTlmOw9In86_X-46" value="&lt;font style=&quot;font-size: 18px;&quot;&gt;&lt;b&gt;ObstaclesLogic&lt;/b&gt;&lt;/font&gt;" style="rounded=0;whiteSpace=wrap;html=1;" vertex="1" parent="1">
          <mxGeometry x="1360" y="-800" width="180" height="40" as="geometry" />
        </mxCell>
      </root>
    </mxGraphModel>
  </diagram>
  <diagram id="aiD1hJAflf_3Q-vMeUIv" name="PÃ¡gina-2">
    <mxGraphModel grid="1" page="1" gridSize="10" guides="1" tooltips="1" connect="1" arrows="1" fold="1" pageScale="1" pageWidth="827" pageHeight="1169" math="0" shadow="0">
      <root>
        <mxCell id="0" />
        <mxCell id="1" parent="0" />
      </root>
    </mxGraphModel>
  </diagram>
</mxfile>
